<?xml version="1.0" encoding="utf-8" standalone="no"?>
<!DOCTYPE svg PUBLIC "-//W3C//DTD SVG 1.1//EN"
  "http://www.w3.org/Graphics/SVG/1.1/DTD/svg11.dtd">
<svg xmlns:xlink="http://www.w3.org/1999/xlink" width="576pt" height="432pt" viewBox="0 0 576 432" xmlns="http://www.w3.org/2000/svg" version="1.1">
 <metadata>
  <rdf:RDF xmlns:dc="http://purl.org/dc/elements/1.1/" xmlns:cc="http://creativecommons.org/ns#" xmlns:rdf="http://www.w3.org/1999/02/22-rdf-syntax-ns#">
   <cc:Work>
    <dc:type rdf:resource="http://purl.org/dc/dcmitype/StillImage"/>
    <dc:date>2023-06-19T21:59:36.825898</dc:date>
    <dc:format>image/svg+xml</dc:format>
    <dc:creator>
     <cc:Agent>
      <dc:title>Matplotlib v3.7.1, https://matplotlib.org/</dc:title>
     </cc:Agent>
    </dc:creator>
   </cc:Work>
  </rdf:RDF>
 </metadata>
 <defs>
  <style type="text/css">*{stroke-linejoin: round; stroke-linecap: butt}</style>
 </defs>
 <g id="figure_1">
  <g id="patch_1">
   <path d="M 0 432 
L 576 432 
L 576 0 
L 0 0 
L 0 432 
z
" style="fill: none"/>
  </g>
  <g id="axes_1">
   <g id="patch_2">
    <path d="M 92.16 362.88 
L 547.2 362.88 
L 547.2 30.24 
L 92.16 30.24 
L 92.16 362.88 
z
" style="fill: none"/>
   </g>
   <g id="patch_3">
    <path d="M 92.16 362.88 
L 92.16 362.88 
L 114.912 362.88 
L 114.912 362.88 
L 137.664 362.88 
L 137.664 362.88 
L 160.416 362.88 
L 160.416 362.88 
L 183.168 362.88 
L 183.168 362.88 
L 205.92 362.88 
L 205.92 362.88 
L 228.672 362.88 
L 228.672 362.88 
L 251.424 362.88 
L 251.424 362.88 
L 274.176 362.88 
L 274.176 362.88 
L 296.928 362.88 
L 296.928 362.88 
L 319.68 362.88 
L 319.68 362.88 
L 342.432 362.88 
L 342.432 362.88 
L 365.184 362.88 
L 365.184 362.88 
L 387.936 362.88 
L 387.936 362.88 
L 410.688 362.88 
L 410.688 362.88 
L 433.44 362.88 
L 433.44 362.88 
L 456.192 362.88 
L 456.192 362.88 
L 478.944 362.88 
L 478.944 362.88 
L 501.696 362.88 
L 501.696 362.88 
L 524.448 362.88 
L 524.448 362.88 
L 547.2 362.88 
L 547.2 362.88 
L 547.2 362.88 
L 547.2 362.88 
L 524.448 362.88 
L 524.448 362.88 
L 501.696 362.88 
L 501.696 362.88 
L 478.944 362.88 
L 478.944 362.88 
L 456.192 362.88 
L 456.192 362.88 
L 433.44 362.88 
L 433.44 362.88 
L 410.688 362.88 
L 410.688 362.88 
L 387.936 362.88 
L 387.936 362.88 
L 365.184 362.88 
L 365.184 362.88 
L 342.432 362.88 
L 342.432 362.88 
L 319.68 362.88 
L 319.68 362.88 
L 296.928 362.88 
L 296.928 362.88 
L 274.176 362.88 
L 274.176 362.88 
L 251.424 362.88 
L 251.424 362.88 
L 228.672 362.88 
L 228.672 362.88 
L 205.92 362.88 
L 205.92 362.88 
L 183.168 362.88 
L 183.168 362.88 
L 160.416 362.88 
L 160.416 362.88 
L 137.664 362.88 
L 137.664 362.88 
L 114.912 362.88 
L 114.912 362.88 
L 92.16 362.88 
L 92.16 362.88 
" clip-path="url(#p6679d5ab60)" style="fill: #ee82ee"/>
   </g>
   <g id="patch_4">
    <path d="M 92.16 362.88 
L 92.16 362.88 
L 114.912 362.88 
L 114.912 362.88 
L 137.664 362.88 
L 137.664 362.88 
L 160.416 362.88 
L 160.416 362.88 
L 183.168 362.88 
L 183.168 362.88 
L 205.92 362.88 
L 205.92 348.056923 
L 228.672 348.056923 
L 228.672 362.88 
L 251.424 362.88 
L 251.424 362.88 
L 274.176 362.88 
L 274.176 362.88 
L 296.928 362.88 
L 296.928 362.88 
L 319.68 362.88 
L 319.68 362.88 
L 342.432 362.88 
L 342.432 362.88 
L 365.184 362.88 
L 365.184 362.88 
L 387.936 362.88 
L 387.936 362.88 
L 410.688 362.88 
L 410.688 362.88 
L 433.44 362.88 
L 433.44 362.88 
L 456.192 362.88 
L 456.192 362.88 
L 478.944 362.88 
L 478.944 362.88 
L 501.696 362.88 
L 501.696 362.88 
L 524.448 362.88 
L 524.448 362.88 
L 547.2 362.88 
L 547.2 362.88 
L 547.2 362.88 
L 547.2 362.88 
L 524.448 362.88 
L 524.448 362.88 
L 501.696 362.88 
L 501.696 362.88 
L 478.944 362.88 
L 478.944 362.88 
L 456.192 362.88 
L 456.192 362.88 
L 433.44 362.88 
L 433.44 362.88 
L 410.688 362.88 
L 410.688 362.88 
L 387.936 362.88 
L 387.936 362.88 
L 365.184 362.88 
L 365.184 362.88 
L 342.432 362.88 
L 342.432 362.88 
L 319.68 362.88 
L 319.68 362.88 
L 296.928 362.88 
L 296.928 362.88 
L 274.176 362.88 
L 274.176 362.88 
L 251.424 362.88 
L 251.424 362.88 
L 228.672 362.88 
L 228.672 362.88 
L 205.92 362.88 
L 205.92 362.88 
L 183.168 362.88 
L 183.168 362.88 
L 160.416 362.88 
L 160.416 362.88 
L 137.664 362.88 
L 137.664 362.88 
L 114.912 362.88 
L 114.912 362.88 
L 92.16 362.88 
L 92.16 362.88 
" clip-path="url(#p6679d5ab60)" style="fill: #00ff00"/>
   </g>
   <g id="patch_5">
    <path d="M 92.16 362.88 
L 92.16 362.88 
L 114.912 362.88 
L 114.912 362.88 
L 137.664 362.88 
L 137.664 362.88 
L 160.416 362.88 
L 160.416 362.88 
L 183.168 362.88 
L 183.168 361.756549 
L 205.92 361.756549 
L 205.92 342.132205 
L 228.672 342.132205 
L 228.672 353.085657 
L 251.424 353.085657 
L 251.424 354.778506 
L 274.176 354.778506 
L 274.176 350.23931 
L 296.928 350.23931 
L 296.928 357.95021 
L 319.68 357.95021 
L 319.68 354.987421 
L 342.432 354.987421 
L 342.432 359.166805 
L 365.184 359.166805 
L 365.184 358.482882 
L 387.936 358.482882 
L 387.936 356.855927 
L 410.688 356.855927 
L 410.688 357.661231 
L 433.44 357.661231 
L 433.44 360.184197 
L 456.192 360.184197 
L 456.192 362.88 
L 478.944 362.88 
L 478.944 360.274162 
L 501.696 360.274162 
L 501.696 357.152364 
L 524.448 357.152364 
L 524.448 361.520064 
L 547.2 361.520064 
L 547.2 362.88 
L 547.2 362.88 
L 547.2 362.88 
L 524.448 362.88 
L 524.448 362.88 
L 501.696 362.88 
L 501.696 362.88 
L 478.944 362.88 
L 478.944 362.88 
L 456.192 362.88 
L 456.192 362.88 
L 433.44 362.88 
L 433.44 362.88 
L 410.688 362.88 
L 410.688 362.88 
L 387.936 362.88 
L 387.936 362.88 
L 365.184 362.88 
L 365.184 362.88 
L 342.432 362.88 
L 342.432 362.88 
L 319.68 362.88 
L 319.68 362.88 
L 296.928 362.88 
L 296.928 362.88 
L 274.176 362.88 
L 274.176 362.88 
L 251.424 362.88 
L 251.424 362.88 
L 228.672 362.88 
L 228.672 348.056923 
L 205.92 348.056923 
L 205.92 362.88 
L 183.168 362.88 
L 183.168 362.88 
L 160.416 362.88 
L 160.416 362.88 
L 137.664 362.88 
L 137.664 362.88 
L 114.912 362.88 
L 114.912 362.88 
L 92.16 362.88 
L 92.16 362.88 
" clip-path="url(#p6679d5ab60)" style="fill: #4169e1"/>
   </g>
   <g id="patch_6">
    <path d="M 92.16 362.88 
L 92.16 362.88 
L 114.912 362.88 
L 114.912 362.88 
L 137.664 362.88 
L 137.664 362.88 
L 160.416 362.88 
L 160.416 362.88 
L 183.168 362.88 
L 183.168 361.756549 
L 205.92 361.756549 
L 205.92 342.132205 
L 228.672 342.132205 
L 228.672 353.085657 
L 251.424 353.085657 
L 251.424 354.778506 
L 274.176 354.778506 
L 274.176 350.23931 
L 296.928 350.23931 
L 296.928 357.95021 
L 319.68 357.95021 
L 319.68 354.987421 
L 342.432 354.987421 
L 342.432 359.166805 
L 365.184 359.166805 
L 365.184 358.482882 
L 387.936 358.482882 
L 387.936 356.855927 
L 410.688 356.855927 
L 410.688 357.661231 
L 433.44 357.661231 
L 433.44 360.184197 
L 456.192 360.184197 
L 456.192 362.88 
L 478.944 362.88 
L 478.944 360.274162 
L 501.696 360.274162 
L 501.696 357.152364 
L 524.448 357.152364 
L 524.448 361.520064 
L 547.2 361.520064 
L 547.2 361.520064 
L 547.2 361.520064 
L 547.2 361.520064 
L 524.448 361.520064 
L 524.448 357.152364 
L 501.696 357.152364 
L 501.696 360.274162 
L 478.944 360.274162 
L 478.944 362.88 
L 456.192 362.88 
L 456.192 360.184197 
L 433.44 360.184197 
L 433.44 357.661231 
L 410.688 357.661231 
L 410.688 356.855927 
L 387.936 356.855927 
L 387.936 358.482882 
L 365.184 358.482882 
L 365.184 359.166805 
L 342.432 359.166805 
L 342.432 354.987421 
L 319.68 354.987421 
L 319.68 357.95021 
L 296.928 357.95021 
L 296.928 350.23931 
L 274.176 350.23931 
L 274.176 354.778506 
L 251.424 354.778506 
L 251.424 353.085657 
L 228.672 353.085657 
L 228.672 342.132205 
L 205.92 342.132205 
L 205.92 361.756549 
L 183.168 361.756549 
L 183.168 362.88 
L 160.416 362.88 
L 160.416 362.88 
L 137.664 362.88 
L 137.664 362.88 
L 114.912 362.88 
L 114.912 362.88 
L 92.16 362.88 
L 92.16 362.88 
" clip-path="url(#p6679d5ab60)" style="fill: #663399"/>
   </g>
   <g id="patch_7">
    <path d="M 92.16 362.88 
L 92.16 362.88 
L 114.912 362.88 
L 114.912 362.88 
L 137.664 362.88 
L 137.664 362.88 
L 160.416 362.88 
L 160.416 362.88 
L 183.168 362.88 
L 183.168 290.37384 
L 205.92 290.37384 
L 205.92 135.986448 
L 228.672 135.986448 
L 228.672 221.126251 
L 251.424 221.126251 
L 251.424 144.979804 
L 274.176 144.979804 
L 274.176 120.234906 
L 296.928 120.234906 
L 296.928 188.974993 
L 319.68 188.974993 
L 319.68 205.806022 
L 342.432 205.806022 
L 342.432 192.138351 
L 365.184 192.138351 
L 365.184 283.19606 
L 387.936 283.19606 
L 387.936 251.154023 
L 410.688 251.154023 
L 410.688 272.421628 
L 433.44 272.421628 
L 433.44 291.069566 
L 456.192 291.069566 
L 456.192 309.215432 
L 478.944 309.215432 
L 478.944 316.649613 
L 501.696 316.649613 
L 501.696 311.136216 
L 524.448 311.136216 
L 524.448 314.041485 
L 547.2 314.041485 
L 547.2 361.520064 
L 547.2 361.520064 
L 547.2 361.520064 
L 524.448 361.520064 
L 524.448 357.152364 
L 501.696 357.152364 
L 501.696 360.274162 
L 478.944 360.274162 
L 478.944 362.88 
L 456.192 362.88 
L 456.192 360.184197 
L 433.44 360.184197 
L 433.44 357.661231 
L 410.688 357.661231 
L 410.688 356.855927 
L 387.936 356.855927 
L 387.936 358.482882 
L 365.184 358.482882 
L 365.184 359.166805 
L 342.432 359.166805 
L 342.432 354.987421 
L 319.68 354.987421 
L 319.68 357.95021 
L 296.928 357.95021 
L 296.928 350.23931 
L 274.176 350.23931 
L 274.176 354.778506 
L 251.424 354.778506 
L 251.424 353.085657 
L 228.672 353.085657 
L 228.672 342.132205 
L 205.92 342.132205 
L 205.92 361.756549 
L 183.168 361.756549 
L 183.168 362.88 
L 160.416 362.88 
L 160.416 362.88 
L 137.664 362.88 
L 137.664 362.88 
L 114.912 362.88 
L 114.912 362.88 
L 92.16 362.88 
L 92.16 362.88 
" clip-path="url(#p6679d5ab60)" style="fill: #ff0000"/>
   </g>
   <g id="patch_8">
    <path d="M 92.16 362.88 
L 92.16 362.88 
L 114.912 362.88 
L 114.912 362.88 
L 137.664 362.88 
L 137.664 362.88 
L 160.416 362.88 
L 160.416 362.88 
L 183.168 362.88 
L 183.168 290.37384 
L 205.92 290.37384 
L 205.92 135.487021 
L 228.672 135.487021 
L 228.672 221.126251 
L 251.424 221.126251 
L 251.424 144.979804 
L 274.176 144.979804 
L 274.176 120.234906 
L 296.928 120.234906 
L 296.928 188.974993 
L 319.68 188.974993 
L 319.68 205.806022 
L 342.432 205.806022 
L 342.432 192.138351 
L 365.184 192.138351 
L 365.184 283.19606 
L 387.936 283.19606 
L 387.936 251.154023 
L 410.688 251.154023 
L 410.688 272.421628 
L 433.44 272.421628 
L 433.44 291.069566 
L 456.192 291.069566 
L 456.192 309.215432 
L 478.944 309.215432 
L 478.944 316.649613 
L 501.696 316.649613 
L 501.696 311.136216 
L 524.448 311.136216 
L 524.448 314.041485 
L 547.2 314.041485 
L 547.2 314.041485 
L 547.2 314.041485 
L 547.2 314.041485 
L 524.448 314.041485 
L 524.448 311.136216 
L 501.696 311.136216 
L 501.696 316.649613 
L 478.944 316.649613 
L 478.944 309.215432 
L 456.192 309.215432 
L 456.192 291.069566 
L 433.44 291.069566 
L 433.44 272.421628 
L 410.688 272.421628 
L 410.688 251.154023 
L 387.936 251.154023 
L 387.936 283.19606 
L 365.184 283.19606 
L 365.184 192.138351 
L 342.432 192.138351 
L 342.432 205.806022 
L 319.68 205.806022 
L 319.68 188.974993 
L 296.928 188.974993 
L 296.928 120.234906 
L 274.176 120.234906 
L 274.176 144.979804 
L 251.424 144.979804 
L 251.424 221.126251 
L 228.672 221.126251 
L 228.672 135.986448 
L 205.92 135.986448 
L 205.92 290.37384 
L 183.168 290.37384 
L 183.168 362.88 
L 160.416 362.88 
L 160.416 362.88 
L 137.664 362.88 
L 137.664 362.88 
L 114.912 362.88 
L 114.912 362.88 
L 92.16 362.88 
L 92.16 362.88 
" clip-path="url(#p6679d5ab60)" style="fill: #00ffff"/>
   </g>
   <g id="patch_9">
    <path d="M 92.16 362.88 
L 92.16 362.88 
L 114.912 362.88 
L 114.912 362.88 
L 137.664 362.88 
L 137.664 362.88 
L 160.416 362.88 
L 160.416 362.88 
L 183.168 362.88 
L 183.168 290.37384 
L 205.92 290.37384 
L 205.92 135.487021 
L 228.672 135.487021 
L 228.672 221.126251 
L 251.424 221.126251 
L 251.424 144.979804 
L 274.176 144.979804 
L 274.176 120.234906 
L 296.928 120.234906 
L 296.928 188.974993 
L 319.68 188.974993 
L 319.68 205.806022 
L 342.432 205.806022 
L 342.432 192.138351 
L 365.184 192.138351 
L 365.184 283.19606 
L 387.936 283.19606 
L 387.936 251.154023 
L 410.688 251.154023 
L 410.688 272.421628 
L 433.44 272.421628 
L 433.44 291.069566 
L 456.192 291.069566 
L 456.192 309.215432 
L 478.944 309.215432 
L 478.944 316.649613 
L 501.696 316.649613 
L 501.696 311.136216 
L 524.448 311.136216 
L 524.448 314.041485 
L 547.2 314.041485 
L 547.2 314.041485 
L 547.2 314.041485 
L 547.2 314.041485 
L 524.448 314.041485 
L 524.448 311.136216 
L 501.696 311.136216 
L 501.696 316.649613 
L 478.944 316.649613 
L 478.944 309.215432 
L 456.192 309.215432 
L 456.192 291.069566 
L 433.44 291.069566 
L 433.44 272.421628 
L 410.688 272.421628 
L 410.688 251.154023 
L 387.936 251.154023 
L 387.936 283.19606 
L 365.184 283.19606 
L 365.184 192.138351 
L 342.432 192.138351 
L 342.432 205.806022 
L 319.68 205.806022 
L 319.68 188.974993 
L 296.928 188.974993 
L 296.928 120.234906 
L 274.176 120.234906 
L 274.176 144.979804 
L 251.424 144.979804 
L 251.424 221.126251 
L 228.672 221.126251 
L 228.672 135.487021 
L 205.92 135.487021 
L 205.92 290.37384 
L 183.168 290.37384 
L 183.168 362.88 
L 160.416 362.88 
L 160.416 362.88 
L 137.664 362.88 
L 137.664 362.88 
L 114.912 362.88 
L 114.912 362.88 
L 92.16 362.88 
L 92.16 362.88 
" clip-path="url(#p6679d5ab60)" style="fill: #9acd32"/>
   </g>
   <g id="patch_10">
    <path d="M 92.16 362.88 
L 92.16 362.88 
L 114.912 362.88 
L 114.912 362.88 
L 137.664 362.88 
L 137.664 362.88 
L 160.416 362.88 
L 160.416 362.88 
L 183.168 362.88 
L 183.168 290.37384 
L 205.92 290.37384 
L 205.92 135.487021 
L 228.672 135.487021 
L 228.672 209.347858 
L 251.424 209.347858 
L 251.424 144.979804 
L 274.176 144.979804 
L 274.176 120.234906 
L 296.928 120.234906 
L 296.928 188.974993 
L 319.68 188.974993 
L 319.68 205.806022 
L 342.432 205.806022 
L 342.432 192.138351 
L 365.184 192.138351 
L 365.184 283.19606 
L 387.936 283.19606 
L 387.936 251.154023 
L 410.688 251.154023 
L 410.688 272.421628 
L 433.44 272.421628 
L 433.44 291.069566 
L 456.192 291.069566 
L 456.192 301.83154 
L 478.944 301.83154 
L 478.944 316.649613 
L 501.696 316.649613 
L 501.696 311.136216 
L 524.448 311.136216 
L 524.448 314.041485 
L 547.2 314.041485 
L 547.2 314.041485 
L 547.2 314.041485 
L 547.2 314.041485 
L 524.448 314.041485 
L 524.448 311.136216 
L 501.696 311.136216 
L 501.696 316.649613 
L 478.944 316.649613 
L 478.944 309.215432 
L 456.192 309.215432 
L 456.192 291.069566 
L 433.44 291.069566 
L 433.44 272.421628 
L 410.688 272.421628 
L 410.688 251.154023 
L 387.936 251.154023 
L 387.936 283.19606 
L 365.184 283.19606 
L 365.184 192.138351 
L 342.432 192.138351 
L 342.432 205.806022 
L 319.68 205.806022 
L 319.68 188.974993 
L 296.928 188.974993 
L 296.928 120.234906 
L 274.176 120.234906 
L 274.176 144.979804 
L 251.424 144.979804 
L 251.424 221.126251 
L 228.672 221.126251 
L 228.672 135.487021 
L 205.92 135.487021 
L 205.92 290.37384 
L 183.168 290.37384 
L 183.168 362.88 
L 160.416 362.88 
L 160.416 362.88 
L 137.664 362.88 
L 137.664 362.88 
L 114.912 362.88 
L 114.912 362.88 
L 92.16 362.88 
L 92.16 362.88 
" clip-path="url(#p6679d5ab60)" style="fill: #ffd700"/>
   </g>
   <g id="patch_11">
    <path d="M 92.16 362.88 
L 92.16 362.88 
L 114.912 362.88 
L 114.912 362.88 
L 137.664 362.88 
L 137.664 362.88 
L 160.416 362.88 
L 160.416 362.88 
L 183.168 362.88 
L 183.168 270.668795 
L 205.92 270.668795 
L 205.92 98.551369 
L 228.672 98.551369 
L 228.672 180.148978 
L 251.424 180.148978 
L 251.424 111.152551 
L 274.176 111.152551 
L 274.176 83.897161 
L 296.928 83.897161 
L 296.928 158.916531 
L 319.68 158.916531 
L 319.68 176.672206 
L 342.432 176.672206 
L 342.432 162.253618 
L 365.184 162.253618 
L 365.184 262.670691 
L 387.936 262.670691 
L 387.936 226.937791 
L 410.688 226.937791 
L 410.688 250.299452 
L 433.44 250.299452 
L 433.44 271.258736 
L 456.192 271.258736 
L 456.192 283.121691 
L 478.944 283.121691 
L 478.944 301.614193 
L 501.696 301.614193 
L 501.696 295.056668 
L 524.448 295.056668 
L 524.448 297.730077 
L 547.2 297.730077 
L 547.2 330.352893 
L 547.2 330.352893 
L 547.2 330.352893 
L 524.448 330.352893 
L 524.448 327.215765 
L 501.696 327.215765 
L 501.696 331.685034 
L 478.944 331.685034 
L 478.944 320.541389 
L 456.192 320.541389 
L 456.192 310.880396 
L 433.44 310.880396 
L 433.44 294.543804 
L 410.688 294.543804 
L 410.688 275.370255 
L 387.936 275.370255 
L 387.936 303.721429 
L 365.184 303.721429 
L 365.184 222.023084 
L 342.432 222.023084 
L 342.432 234.939837 
L 319.68 234.939837 
L 319.68 219.033455 
L 296.928 219.033455 
L 296.928 156.572651 
L 274.176 156.572651 
L 274.176 178.807057 
L 251.424 178.807057 
L 251.424 238.546739 
L 228.672 238.546739 
L 228.672 172.422672 
L 205.92 172.422672 
L 205.92 310.078885 
L 183.168 310.078885 
L 183.168 362.88 
L 160.416 362.88 
L 160.416 362.88 
L 137.664 362.88 
L 137.664 362.88 
L 114.912 362.88 
L 114.912 362.88 
L 92.16 362.88 
L 92.16 362.88 
" clip-path="url(#p6679d5ab60)" style="fill: url(#h4357f3d935); opacity: 0.5; stroke: #000000; stroke-linejoin: miter"/>
   </g>
   <g id="LineCollection_1">
    <path d="M 96.968063 362.88 
L 110.103937 362.88 
" clip-path="url(#p6679d5ab60)" style="fill: none; stroke: #000000; stroke-width: 2"/>
    <path d="M 119.720063 362.88 
L 132.855937 362.88 
" clip-path="url(#p6679d5ab60)" style="fill: none; stroke: #000000; stroke-width: 2"/>
    <path d="M 142.472063 362.88 
L 155.607937 362.88 
" clip-path="url(#p6679d5ab60)" style="fill: none; stroke: #000000; stroke-width: 2"/>
    <path d="M 165.224063 362.88 
L 178.359937 362.88 
" clip-path="url(#p6679d5ab60)" style="fill: none; stroke: #000000; stroke-width: 2"/>
    <path d="M 187.976063 279.72 
L 201.111937 279.72 
" clip-path="url(#p6679d5ab60)" style="fill: none; stroke: #000000; stroke-width: 2"/>
    <path d="M 210.728063 134.19 
L 223.863937 134.19 
" clip-path="url(#p6679d5ab60)" style="fill: none; stroke: #000000; stroke-width: 2"/>
    <path d="M 233.480063 175.77 
L 246.615937 175.77 
" clip-path="url(#p6679d5ab60)" style="fill: none; stroke: #000000; stroke-width: 2"/>
    <path d="M 256.232063 196.56 
L 269.367937 196.56 
" clip-path="url(#p6679d5ab60)" style="fill: none; stroke: #000000; stroke-width: 2"/>
    <path d="M 278.984063 175.77 
L 292.119937 175.77 
" clip-path="url(#p6679d5ab60)" style="fill: none; stroke: #000000; stroke-width: 2"/>
    <path d="M 301.736063 217.35 
L 314.871937 217.35 
" clip-path="url(#p6679d5ab60)" style="fill: none; stroke: #000000; stroke-width: 2"/>
    <path d="M 324.488063 154.98 
L 337.623937 154.98 
" clip-path="url(#p6679d5ab60)" style="fill: none; stroke: #000000; stroke-width: 2"/>
    <path d="M 347.240063 175.77 
L 360.375937 175.77 
" clip-path="url(#p6679d5ab60)" style="fill: none; stroke: #000000; stroke-width: 2"/>
    <path d="M 369.992063 321.3 
L 383.127937 321.3 
" clip-path="url(#p6679d5ab60)" style="fill: none; stroke: #000000; stroke-width: 2"/>
    <path d="M 392.744063 258.93 
L 405.879937 258.93 
" clip-path="url(#p6679d5ab60)" style="fill: none; stroke: #000000; stroke-width: 2"/>
    <path d="M 415.496063 279.72 
L 428.631937 279.72 
" clip-path="url(#p6679d5ab60)" style="fill: none; stroke: #000000; stroke-width: 2"/>
    <path d="M 438.248063 321.3 
L 451.383937 321.3 
" clip-path="url(#p6679d5ab60)" style="fill: none; stroke: #000000; stroke-width: 2"/>
    <path d="M 461.000063 279.72 
L 474.135937 279.72 
" clip-path="url(#p6679d5ab60)" style="fill: none; stroke: #000000; stroke-width: 2"/>
    <path d="M 483.752063 217.35 
L 496.887937 217.35 
" clip-path="url(#p6679d5ab60)" style="fill: none; stroke: #000000; stroke-width: 2"/>
    <path d="M 506.504063 321.3 
L 519.639937 321.3 
" clip-path="url(#p6679d5ab60)" style="fill: none; stroke: #000000; stroke-width: 2"/>
    <path d="M 529.256063 342.09 
L 542.391937 342.09 
" clip-path="url(#p6679d5ab60)" style="fill: none; stroke: #000000; stroke-width: 2"/>
   </g>
   <g id="LineCollection_2">
    <path d="M 103.536 362.88 
L 103.536 362.88 
" clip-path="url(#p6679d5ab60)" style="fill: none; stroke: #000000; stroke-width: 2"/>
    <path d="M 126.288 362.88 
L 126.288 362.88 
" clip-path="url(#p6679d5ab60)" style="fill: none; stroke: #000000; stroke-width: 2"/>
    <path d="M 149.04 362.88 
L 149.04 362.88 
" clip-path="url(#p6679d5ab60)" style="fill: none; stroke: #000000; stroke-width: 2"/>
    <path d="M 171.792 362.88 
L 171.792 362.88 
" clip-path="url(#p6679d5ab60)" style="fill: none; stroke: #000000; stroke-width: 2"/>
    <path d="M 194.544 321.3 
L 194.544 238.14 
" clip-path="url(#p6679d5ab60)" style="fill: none; stroke: #000000; stroke-width: 2"/>
    <path d="M 217.296 203.142629 
L 217.296 65.237371 
" clip-path="url(#p6679d5ab60)" style="fill: none; stroke: #000000; stroke-width: 2"/>
    <path d="M 240.048 238.14 
L 240.048 113.4 
" clip-path="url(#p6679d5ab60)" style="fill: none; stroke: #000000; stroke-width: 2"/>
    <path d="M 262.8 255.363 
L 262.8 137.757 
" clip-path="url(#p6679d5ab60)" style="fill: none; stroke: #000000; stroke-width: 2"/>
    <path d="M 285.552 238.14 
L 285.552 113.4 
" clip-path="url(#p6679d5ab60)" style="fill: none; stroke: #000000; stroke-width: 2"/>
    <path d="M 308.304 272.35517 
L 308.304 162.34483 
" clip-path="url(#p6679d5ab60)" style="fill: none; stroke: #000000; stroke-width: 2"/>
    <path d="M 331.056 220.723753 
L 331.056 89.236247 
" clip-path="url(#p6679d5ab60)" style="fill: none; stroke: #000000; stroke-width: 2"/>
    <path d="M 353.808 238.14 
L 353.808 113.4 
" clip-path="url(#p6679d5ab60)" style="fill: none; stroke: #000000; stroke-width: 2"/>
    <path d="M 376.56 350.7015 
L 376.56 291.8985 
" clip-path="url(#p6679d5ab60)" style="fill: none; stroke: #000000; stroke-width: 2"/>
    <path d="M 399.312 305.417853 
L 399.312 212.442147 
" clip-path="url(#p6679d5ab60)" style="fill: none; stroke: #000000; stroke-width: 2"/>
    <path d="M 422.064 321.3 
L 422.064 238.14 
" clip-path="url(#p6679d5ab60)" style="fill: none; stroke: #000000; stroke-width: 2"/>
    <path d="M 444.816 350.7015 
L 444.816 291.8985 
" clip-path="url(#p6679d5ab60)" style="fill: none; stroke: #000000; stroke-width: 2"/>
    <path d="M 467.568 321.3 
L 467.568 238.14 
" clip-path="url(#p6679d5ab60)" style="fill: none; stroke: #000000; stroke-width: 2"/>
    <path d="M 490.32 272.35517 
L 490.32 162.34483 
" clip-path="url(#p6679d5ab60)" style="fill: none; stroke: #000000; stroke-width: 2"/>
    <path d="M 513.072 350.7015 
L 513.072 291.8985 
" clip-path="url(#p6679d5ab60)" style="fill: none; stroke: #000000; stroke-width: 2"/>
    <path d="M 535.824 362.88 
L 535.824 321.3 
" clip-path="url(#p6679d5ab60)" style="fill: none; stroke: #000000; stroke-width: 2"/>
   </g>
   <g id="line2d_1">
    <path d="M 275.03375 362.88 
L 275.03375 30.24 
" clip-path="url(#p6679d5ab60)" style="fill: none; stroke-dasharray: 7.4,3.2; stroke-dashoffset: 0; stroke: #000000; stroke-width: 2"/>
   </g>
   <g id="line2d_2"/>
   <g id="patch_12">
    <path d="M 92.16 362.88 
L 92.16 30.24 
" style="fill: none; stroke: #000000; stroke-linejoin: miter; stroke-linecap: square"/>
   </g>
   <g id="patch_13">
    <path d="M 547.2 362.88 
L 547.2 30.24 
" style="fill: none; stroke: #000000; stroke-linejoin: miter; stroke-linecap: square"/>
   </g>
   <g id="patch_14">
    <path d="M 92.16 362.88 
L 547.2 362.88 
" style="fill: none; stroke: #000000; stroke-linejoin: miter; stroke-linecap: square"/>
   </g>
   <g id="patch_15">
    <path d="M 92.16 30.24 
L 547.2 30.24 
" style="fill: none; stroke: #000000; stroke-linejoin: miter; stroke-linecap: square"/>
   </g>
   <g id="matplotlib.axis_1">
    <g id="xtick_1">
     <g id="line2d_3">
      <defs>
       <path id="m30cfee2427" d="M 0 0 
L 0 -5 
" style="stroke: #000000; stroke-width: 0.8"/>
      </defs>
      <g>
       <use xlink:href="#m30cfee2427" x="92.16" y="362.88" style="stroke: #000000; stroke-width: 0.8"/>
      </g>
     </g>
     <g id="line2d_4">
      <defs>
       <path id="m8cecb1ceb8" d="M 0 0 
L 0 5 
" style="stroke: #000000; stroke-width: 0.8"/>
      </defs>
      <g>
       <use xlink:href="#m8cecb1ceb8" x="92.16" y="30.24" style="stroke: #000000; stroke-width: 0.8"/>
      </g>
     </g>
     <g id="text_1">
      <!-- $\mathdefault{0}$ -->
      <g transform="translate(87.456 378.62825) scale(0.168 -0.168)">
       <defs>
        <path id="TeXGyreHeros-Regular-30" d="M 3245 2182 
C 3245 3757 2746 4538 1760 4538 
C 781 4538 275 3744 275 2221 
C 275 691 787 -96 1760 -96 
C 2720 -96 3245 691 3245 2182 
z
M 2669 2234 
C 2669 947 2374 371 1747 371 
C 1152 371 851 973 851 2214 
C 851 3456 1152 4038 1760 4038 
C 2368 4038 2669 3450 2669 2234 
z
" transform="scale(0.015625)"/>
       </defs>
       <use xlink:href="#TeXGyreHeros-Regular-30" transform="translate(0 0.09375)"/>
      </g>
     </g>
    </g>
    <g id="xtick_2">
     <g id="line2d_5">
      <g>
       <use xlink:href="#m30cfee2427" x="183.168" y="362.88" style="stroke: #000000; stroke-width: 0.8"/>
      </g>
     </g>
     <g id="line2d_6">
      <g>
       <use xlink:href="#m8cecb1ceb8" x="183.168" y="30.24" style="stroke: #000000; stroke-width: 0.8"/>
      </g>
     </g>
     <g id="text_2">
      <!-- $\mathdefault{20}$ -->
      <g transform="translate(173.76 378.62825) scale(0.168 -0.168)">
       <defs>
        <path id="TeXGyreHeros-Regular-32" d="M 3270 3206 
C 3270 3974 2675 4538 1818 4538 
C 890 4538 352 4064 320 2963 
L 883 2963 
C 928 3725 1242 4045 1798 4045 
C 2310 4045 2694 3680 2694 3194 
C 2694 2835 2483 2528 2080 2298 
L 1491 1965 
C 544 1427 269 998 218 0 
L 3238 0 
L 3238 557 
L 851 557 
C 909 928 1114 1165 1670 1491 
L 2310 1837 
C 2944 2176 3270 2650 3270 3206 
z
" transform="scale(0.015625)"/>
       </defs>
       <use xlink:href="#TeXGyreHeros-Regular-32" transform="translate(0 0.09375)"/>
       <use xlink:href="#TeXGyreHeros-Regular-30" transform="translate(55.599991 0.09375)"/>
      </g>
     </g>
    </g>
    <g id="xtick_3">
     <g id="line2d_7">
      <g>
       <use xlink:href="#m30cfee2427" x="274.176" y="362.88" style="stroke: #000000; stroke-width: 0.8"/>
      </g>
     </g>
     <g id="line2d_8">
      <g>
       <use xlink:href="#m8cecb1ceb8" x="274.176" y="30.24" style="stroke: #000000; stroke-width: 0.8"/>
      </g>
     </g>
     <g id="text_3">
      <!-- $\mathdefault{40}$ -->
      <g transform="translate(264.768 378.62825) scale(0.168 -0.168)">
       <defs>
        <path id="TeXGyreHeros-Regular-34" d="M 3328 1088 
L 3328 1594 
L 2656 1594 
L 2656 4538 
L 2240 4538 
L 179 1683 
L 179 1088 
L 2093 1088 
L 2093 0 
L 2656 0 
L 2656 1088 
L 3328 1088 
z
M 2093 1594 
L 672 1594 
L 2093 3578 
L 2093 1594 
z
" transform="scale(0.015625)"/>
       </defs>
       <use xlink:href="#TeXGyreHeros-Regular-34" transform="translate(0 0.09375)"/>
       <use xlink:href="#TeXGyreHeros-Regular-30" transform="translate(55.599991 0.09375)"/>
      </g>
     </g>
    </g>
    <g id="xtick_4">
     <g id="line2d_9">
      <g>
       <use xlink:href="#m30cfee2427" x="365.184" y="362.88" style="stroke: #000000; stroke-width: 0.8"/>
      </g>
     </g>
     <g id="line2d_10">
      <g>
       <use xlink:href="#m8cecb1ceb8" x="365.184" y="30.24" style="stroke: #000000; stroke-width: 0.8"/>
      </g>
     </g>
     <g id="text_4">
      <!-- $\mathdefault{60}$ -->
      <g transform="translate(355.776 378.62825) scale(0.168 -0.168)">
       <defs>
        <path id="TeXGyreHeros-Regular-36" d="M 3283 1408 
C 3283 2253 2707 2822 1894 2822 
C 1446 2822 1094 2650 851 2317 
C 858 3424 1216 4038 1862 4038 
C 2259 4038 2534 3789 2624 3354 
L 3187 3354 
C 3078 4096 2592 4538 1901 4538 
C 845 4538 275 3648 275 2067 
C 275 653 762 -96 1798 -96 
C 2662 -96 3283 518 3283 1408 
z
M 2707 1363 
C 2707 794 2323 403 1805 403 
C 1280 403 883 813 883 1395 
C 883 1958 1267 2323 1824 2323 
C 2368 2323 2707 1971 2707 1363 
z
" transform="scale(0.015625)"/>
       </defs>
       <use xlink:href="#TeXGyreHeros-Regular-36" transform="translate(0 0.09375)"/>
       <use xlink:href="#TeXGyreHeros-Regular-30" transform="translate(55.599991 0.09375)"/>
      </g>
     </g>
    </g>
    <g id="xtick_5">
     <g id="line2d_11">
      <g>
       <use xlink:href="#m30cfee2427" x="456.192" y="362.88" style="stroke: #000000; stroke-width: 0.8"/>
      </g>
     </g>
     <g id="line2d_12">
      <g>
       <use xlink:href="#m8cecb1ceb8" x="456.192" y="30.24" style="stroke: #000000; stroke-width: 0.8"/>
      </g>
     </g>
     <g id="text_5">
      <!-- $\mathdefault{80}$ -->
      <g transform="translate(446.784 378.62825) scale(0.168 -0.168)">
       <defs>
        <path id="TeXGyreHeros-Regular-38" d="M 3283 1280 
C 3283 1786 3027 2138 2502 2387 
C 2970 2669 3123 2899 3123 3328 
C 3123 4038 2566 4538 1760 4538 
C 960 4538 397 4038 397 3328 
C 397 2906 550 2675 1011 2387 
C 493 2138 237 1786 237 1286 
C 237 454 864 -96 1760 -96 
C 2656 -96 3283 454 3283 1280 
z
M 2547 3315 
C 2547 2893 2234 2611 1760 2611 
C 1286 2611 973 2893 973 3322 
C 973 3757 1286 4038 1760 4038 
C 2240 4038 2547 3757 2547 3315 
z
M 2707 1274 
C 2707 736 2323 403 1747 403 
C 1197 403 813 742 813 1274 
C 813 1805 1197 2138 1760 2138 
C 2323 2138 2707 1805 2707 1274 
z
" transform="scale(0.015625)"/>
       </defs>
       <use xlink:href="#TeXGyreHeros-Regular-38" transform="translate(0 0.09375)"/>
       <use xlink:href="#TeXGyreHeros-Regular-30" transform="translate(55.599991 0.09375)"/>
      </g>
     </g>
    </g>
    <g id="xtick_6">
     <g id="line2d_13">
      <g>
       <use xlink:href="#m30cfee2427" x="547.2" y="362.88" style="stroke: #000000; stroke-width: 0.8"/>
      </g>
     </g>
     <g id="line2d_14">
      <g>
       <use xlink:href="#m8cecb1ceb8" x="547.2" y="30.24" style="stroke: #000000; stroke-width: 0.8"/>
      </g>
     </g>
     <g id="text_6">
      <!-- $\mathdefault{100}$ -->
      <g transform="translate(533.172 378.62825) scale(0.168 -0.168)">
       <defs>
        <path id="TeXGyreHeros-Regular-31" d="M 2221 0 
L 2221 4538 
L 1850 4538 
C 1651 3840 1523 3744 653 3635 
L 653 3232 
L 1658 3232 
L 1658 0 
L 2221 0 
z
" transform="scale(0.015625)"/>
       </defs>
       <use xlink:href="#TeXGyreHeros-Regular-31" transform="translate(0 0.09375)"/>
       <use xlink:href="#TeXGyreHeros-Regular-30" transform="translate(55.599991 0.09375)"/>
       <use xlink:href="#TeXGyreHeros-Regular-30" transform="translate(111.199982 0.09375)"/>
      </g>
     </g>
    </g>
    <g id="xtick_7">
     <g id="line2d_15">
      <defs>
       <path id="m85668bfb2f" d="M 0 0 
L 0 -3 
" style="stroke: #000000; stroke-width: 0.6"/>
      </defs>
      <g>
       <use xlink:href="#m85668bfb2f" x="114.912" y="362.88" style="stroke: #000000; stroke-width: 0.6"/>
      </g>
     </g>
     <g id="line2d_16">
      <defs>
       <path id="m135294143f" d="M 0 0 
L 0 3 
" style="stroke: #000000; stroke-width: 0.6"/>
      </defs>
      <g>
       <use xlink:href="#m135294143f" x="114.912" y="30.24" style="stroke: #000000; stroke-width: 0.6"/>
      </g>
     </g>
    </g>
    <g id="xtick_8">
     <g id="line2d_17">
      <g>
       <use xlink:href="#m85668bfb2f" x="137.664" y="362.88" style="stroke: #000000; stroke-width: 0.6"/>
      </g>
     </g>
     <g id="line2d_18">
      <g>
       <use xlink:href="#m135294143f" x="137.664" y="30.24" style="stroke: #000000; stroke-width: 0.6"/>
      </g>
     </g>
    </g>
    <g id="xtick_9">
     <g id="line2d_19">
      <g>
       <use xlink:href="#m85668bfb2f" x="160.416" y="362.88" style="stroke: #000000; stroke-width: 0.6"/>
      </g>
     </g>
     <g id="line2d_20">
      <g>
       <use xlink:href="#m135294143f" x="160.416" y="30.24" style="stroke: #000000; stroke-width: 0.6"/>
      </g>
     </g>
    </g>
    <g id="xtick_10">
     <g id="line2d_21">
      <g>
       <use xlink:href="#m85668bfb2f" x="205.92" y="362.88" style="stroke: #000000; stroke-width: 0.6"/>
      </g>
     </g>
     <g id="line2d_22">
      <g>
       <use xlink:href="#m135294143f" x="205.92" y="30.24" style="stroke: #000000; stroke-width: 0.6"/>
      </g>
     </g>
    </g>
    <g id="xtick_11">
     <g id="line2d_23">
      <g>
       <use xlink:href="#m85668bfb2f" x="228.672" y="362.88" style="stroke: #000000; stroke-width: 0.6"/>
      </g>
     </g>
     <g id="line2d_24">
      <g>
       <use xlink:href="#m135294143f" x="228.672" y="30.24" style="stroke: #000000; stroke-width: 0.6"/>
      </g>
     </g>
    </g>
    <g id="xtick_12">
     <g id="line2d_25">
      <g>
       <use xlink:href="#m85668bfb2f" x="251.424" y="362.88" style="stroke: #000000; stroke-width: 0.6"/>
      </g>
     </g>
     <g id="line2d_26">
      <g>
       <use xlink:href="#m135294143f" x="251.424" y="30.24" style="stroke: #000000; stroke-width: 0.6"/>
      </g>
     </g>
    </g>
    <g id="xtick_13">
     <g id="line2d_27">
      <g>
       <use xlink:href="#m85668bfb2f" x="296.928" y="362.88" style="stroke: #000000; stroke-width: 0.6"/>
      </g>
     </g>
     <g id="line2d_28">
      <g>
       <use xlink:href="#m135294143f" x="296.928" y="30.24" style="stroke: #000000; stroke-width: 0.6"/>
      </g>
     </g>
    </g>
    <g id="xtick_14">
     <g id="line2d_29">
      <g>
       <use xlink:href="#m85668bfb2f" x="319.68" y="362.88" style="stroke: #000000; stroke-width: 0.6"/>
      </g>
     </g>
     <g id="line2d_30">
      <g>
       <use xlink:href="#m135294143f" x="319.68" y="30.24" style="stroke: #000000; stroke-width: 0.6"/>
      </g>
     </g>
    </g>
    <g id="xtick_15">
     <g id="line2d_31">
      <g>
       <use xlink:href="#m85668bfb2f" x="342.432" y="362.88" style="stroke: #000000; stroke-width: 0.6"/>
      </g>
     </g>
     <g id="line2d_32">
      <g>
       <use xlink:href="#m135294143f" x="342.432" y="30.24" style="stroke: #000000; stroke-width: 0.6"/>
      </g>
     </g>
    </g>
    <g id="xtick_16">
     <g id="line2d_33">
      <g>
       <use xlink:href="#m85668bfb2f" x="387.936" y="362.88" style="stroke: #000000; stroke-width: 0.6"/>
      </g>
     </g>
     <g id="line2d_34">
      <g>
       <use xlink:href="#m135294143f" x="387.936" y="30.24" style="stroke: #000000; stroke-width: 0.6"/>
      </g>
     </g>
    </g>
    <g id="xtick_17">
     <g id="line2d_35">
      <g>
       <use xlink:href="#m85668bfb2f" x="410.688" y="362.88" style="stroke: #000000; stroke-width: 0.6"/>
      </g>
     </g>
     <g id="line2d_36">
      <g>
       <use xlink:href="#m135294143f" x="410.688" y="30.24" style="stroke: #000000; stroke-width: 0.6"/>
      </g>
     </g>
    </g>
    <g id="xtick_18">
     <g id="line2d_37">
      <g>
       <use xlink:href="#m85668bfb2f" x="433.44" y="362.88" style="stroke: #000000; stroke-width: 0.6"/>
      </g>
     </g>
     <g id="line2d_38">
      <g>
       <use xlink:href="#m135294143f" x="433.44" y="30.24" style="stroke: #000000; stroke-width: 0.6"/>
      </g>
     </g>
    </g>
    <g id="xtick_19">
     <g id="line2d_39">
      <g>
       <use xlink:href="#m85668bfb2f" x="478.944" y="362.88" style="stroke: #000000; stroke-width: 0.6"/>
      </g>
     </g>
     <g id="line2d_40">
      <g>
       <use xlink:href="#m135294143f" x="478.944" y="30.24" style="stroke: #000000; stroke-width: 0.6"/>
      </g>
     </g>
    </g>
    <g id="xtick_20">
     <g id="line2d_41">
      <g>
       <use xlink:href="#m85668bfb2f" x="501.696" y="362.88" style="stroke: #000000; stroke-width: 0.6"/>
      </g>
     </g>
     <g id="line2d_42">
      <g>
       <use xlink:href="#m135294143f" x="501.696" y="30.24" style="stroke: #000000; stroke-width: 0.6"/>
      </g>
     </g>
    </g>
    <g id="xtick_21">
     <g id="line2d_43">
      <g>
       <use xlink:href="#m85668bfb2f" x="524.448" y="362.88" style="stroke: #000000; stroke-width: 0.6"/>
      </g>
     </g>
     <g id="line2d_44">
      <g>
       <use xlink:href="#m135294143f" x="524.448" y="30.24" style="stroke: #000000; stroke-width: 0.6"/>
      </g>
     </g>
    </g>
    <g id="text_7">
     <!-- $Muon_{Pt}$ [GeV] -->
     <g transform="translate(425.6352 407.410125) scale(0.2016 -0.2016)">
      <defs>
       <path id="TeXGyreHeros-Italic-4d" d="M 5542 4666 
L 4704 4666 
L 2490 653 
L 1978 4666 
L 1152 4666 
L 160 0 
L 730 0 
L 1555 3872 
L 2048 0 
L 2669 0 
L 4806 3872 
L 3981 0 
L 4550 0 
L 5542 4666 
z
" transform="scale(0.015625)"/>
       <path id="TeXGyreHeros-Italic-75" d="M 2771 0 
L 3482 3354 
L 2944 3354 
L 2554 1504 
C 2406 813 1952 365 1408 365 
C 1062 365 838 557 838 858 
C 838 909 845 966 858 1030 
L 1350 3354 
L 813 3354 
L 275 819 
C 262 755 256 685 256 602 
C 256 166 589 -96 1139 -96 
C 1638 -96 2003 58 2368 390 
L 2285 0 
L 2771 0 
z
" transform="scale(0.015625)"/>
       <path id="TeXGyreHeros-Italic-6f" d="M 3366 2253 
C 3366 2931 2906 3450 2138 3450 
C 934 3450 198 2342 198 1075 
C 198 365 698 -96 1414 -96 
C 2579 -96 3366 922 3366 2253 
z
M 2803 2131 
C 2803 1178 2266 397 1504 397 
C 1050 397 762 691 762 1203 
C 762 2131 1299 2957 2054 2957 
C 2528 2957 2803 2650 2803 2131 
z
" transform="scale(0.015625)"/>
       <path id="TeXGyreHeros-Italic-6e" d="M 3328 2406 
C 3347 2490 3354 2566 3354 2650 
C 3354 3136 3014 3450 2483 3450 
C 1997 3450 1574 3277 1242 2938 
L 1325 3354 
L 838 3354 
L 128 0 
L 666 0 
L 1056 1850 
C 1203 2554 1658 2989 2234 2989 
C 2554 2989 2790 2765 2790 2470 
C 2790 2432 2771 2336 2752 2234 
L 2278 0 
L 2816 0 
L 3328 2406 
z
" transform="scale(0.015625)"/>
       <path id="TeXGyreHeros-Italic-50" d="M 4371 3635 
C 4371 4314 3968 4666 3187 4666 
L 1254 4666 
L 262 0 
L 864 0 
L 1286 1978 
L 2746 1978 
C 3712 1978 4371 2771 4371 3635 
z
M 3757 3520 
C 3757 2957 3302 2502 2637 2502 
L 1395 2502 
L 1747 4141 
L 2989 4141 
C 3488 4141 3757 3923 3757 3520 
z
" transform="scale(0.015625)"/>
       <path id="TeXGyreHeros-Italic-74" d="M 1408 467 
C 1210 422 1178 416 1101 416 
C 960 416 870 486 870 589 
C 870 608 877 640 883 678 
L 1363 2925 
L 1933 2925 
L 2022 3354 
L 1453 3354 
L 1651 4275 
L 1114 4275 
L 915 3354 
L 461 3354 
L 371 2925 
L 826 2925 
L 339 659 
C 326 595 320 525 320 461 
C 320 147 538 -45 890 -45 
C 1018 -45 1216 -26 1306 0 
L 1408 467 
z
" transform="scale(0.015625)"/>
       <path id="TeXGyreHeros-Regular-20" transform="scale(0.015625)"/>
       <path id="TeXGyreHeros-Regular-5b" d="M 1600 -1357 
L 1600 -896 
L 941 -896 
L 941 4205 
L 1600 4205 
L 1600 4666 
L 410 4666 
L 410 -1357 
L 1600 -1357 
z
" transform="scale(0.015625)"/>
       <path id="TeXGyreHeros-Regular-47" d="M 4538 0 
L 4538 2464 
L 2592 2464 
L 2592 1939 
L 4013 1939 
L 4013 1811 
C 4013 979 3398 410 2547 410 
C 1491 410 877 1178 877 2317 
C 877 3462 1530 4256 2515 4256 
C 3226 4256 3738 3853 3866 3251 
L 4474 3251 
C 4307 4198 3590 4781 2522 4781 
C 1094 4781 282 3680 282 2285 
C 282 851 1158 -115 2419 -115 
C 3053 -115 3558 109 4013 614 
L 4160 0 
L 4538 0 
z
" transform="scale(0.015625)"/>
       <path id="TeXGyreHeros-Regular-65" d="M 3283 1523 
C 3283 2010 3245 2317 3149 2566 
C 2931 3117 2419 3450 1792 3450 
C 858 3450 256 2758 256 1658 
C 256 557 838 -96 1779 -96 
C 2547 -96 3078 339 3213 1018 
L 2675 1018 
C 2528 576 2227 397 1798 397 
C 1242 397 826 755 813 1523 
L 3283 1523 
z
M 2714 1997 
C 2714 1997 2714 1971 2707 1958 
L 826 1958 
C 870 2554 1248 2957 1786 2957 
C 2310 2957 2714 2522 2714 1997 
z
" transform="scale(0.015625)"/>
       <path id="TeXGyreHeros-Regular-56" d="M 4128 4666 
L 3494 4666 
L 2202 717 
L 832 4666 
L 192 4666 
L 1869 0 
L 2509 0 
L 4128 4666 
z
" transform="scale(0.015625)"/>
       <path id="TeXGyreHeros-Regular-5d" d="M 1338 -1357 
L 1338 4666 
L 147 4666 
L 147 4205 
L 806 4205 
L 806 -896 
L 147 -896 
L 147 -1357 
L 1338 -1357 
z
" transform="scale(0.015625)"/>
      </defs>
      <use xlink:href="#TeXGyreHeros-Italic-4d" transform="translate(0 0.296875)"/>
      <use xlink:href="#TeXGyreHeros-Italic-75" transform="translate(83.299988 0.296875)"/>
      <use xlink:href="#TeXGyreHeros-Italic-6f" transform="translate(138.899979 0.296875)"/>
      <use xlink:href="#TeXGyreHeros-Italic-6e" transform="translate(194.499969 0.296875)"/>
      <use xlink:href="#TeXGyreHeros-Italic-50" transform="translate(250.09996 -15.425) scale(0.7)"/>
      <use xlink:href="#TeXGyreHeros-Italic-74" transform="translate(296.789958 -15.425) scale(0.7)"/>
      <use xlink:href="#TeXGyreHeros-Regular-20" transform="translate(318.870262 0.296875)"/>
      <use xlink:href="#TeXGyreHeros-Regular-5b" transform="translate(346.67025 0.296875)"/>
      <use xlink:href="#TeXGyreHeros-Regular-47" transform="translate(374.470238 0.296875)"/>
      <use xlink:href="#TeXGyreHeros-Regular-65" transform="translate(452.270226 0.296875)"/>
      <use xlink:href="#TeXGyreHeros-Regular-56" transform="translate(507.870216 0.296875)"/>
      <use xlink:href="#TeXGyreHeros-Regular-5d" transform="translate(574.570213 0.296875)"/>
     </g>
    </g>
   </g>
   <g id="matplotlib.axis_2">
    <g id="ytick_1">
     <g id="line2d_45">
      <defs>
       <path id="mb3a42015c2" d="M 0 0 
L 14 0 
" style="stroke: #000000; stroke-width: 0.8"/>
      </defs>
      <g>
       <use xlink:href="#mb3a42015c2" x="92.16" y="362.88" style="stroke: #000000; stroke-width: 0.8"/>
      </g>
     </g>
     <g id="line2d_46">
      <defs>
       <path id="me2cac8929c" d="M 0 0 
L -14 0 
" style="stroke: #000000; stroke-width: 0.8"/>
      </defs>
      <g>
       <use xlink:href="#me2cac8929c" x="547.2" y="362.88" style="stroke: #000000; stroke-width: 0.8"/>
      </g>
     </g>
     <g id="text_8">
      <!-- $\mathdefault{0}$ -->
      <g transform="translate(79.252 369.004125) scale(0.168 -0.168)">
       <use xlink:href="#TeXGyreHeros-Regular-30" transform="translate(0 0.09375)"/>
      </g>
     </g>
    </g>
    <g id="ytick_2">
     <g id="line2d_47">
      <g>
       <use xlink:href="#mb3a42015c2" x="92.16" y="321.3" style="stroke: #000000; stroke-width: 0.8"/>
      </g>
     </g>
     <g id="line2d_48">
      <g>
       <use xlink:href="#me2cac8929c" x="547.2" y="321.3" style="stroke: #000000; stroke-width: 0.8"/>
      </g>
     </g>
     <g id="text_9">
      <!-- $\mathdefault{2}$ -->
      <g transform="translate(79.252 327.424125) scale(0.168 -0.168)">
       <use xlink:href="#TeXGyreHeros-Regular-32" transform="translate(0 0.09375)"/>
      </g>
     </g>
    </g>
    <g id="ytick_3">
     <g id="line2d_49">
      <g>
       <use xlink:href="#mb3a42015c2" x="92.16" y="279.72" style="stroke: #000000; stroke-width: 0.8"/>
      </g>
     </g>
     <g id="line2d_50">
      <g>
       <use xlink:href="#me2cac8929c" x="547.2" y="279.72" style="stroke: #000000; stroke-width: 0.8"/>
      </g>
     </g>
     <g id="text_10">
      <!-- $\mathdefault{4}$ -->
      <g transform="translate(79.252 285.844125) scale(0.168 -0.168)">
       <use xlink:href="#TeXGyreHeros-Regular-34" transform="translate(0 0.09375)"/>
      </g>
     </g>
    </g>
    <g id="ytick_4">
     <g id="line2d_51">
      <g>
       <use xlink:href="#mb3a42015c2" x="92.16" y="238.14" style="stroke: #000000; stroke-width: 0.8"/>
      </g>
     </g>
     <g id="line2d_52">
      <g>
       <use xlink:href="#me2cac8929c" x="547.2" y="238.14" style="stroke: #000000; stroke-width: 0.8"/>
      </g>
     </g>
     <g id="text_11">
      <!-- $\mathdefault{6}$ -->
      <g transform="translate(79.252 244.264125) scale(0.168 -0.168)">
       <use xlink:href="#TeXGyreHeros-Regular-36" transform="translate(0 0.09375)"/>
      </g>
     </g>
    </g>
    <g id="ytick_5">
     <g id="line2d_53">
      <g>
       <use xlink:href="#mb3a42015c2" x="92.16" y="196.56" style="stroke: #000000; stroke-width: 0.8"/>
      </g>
     </g>
     <g id="line2d_54">
      <g>
       <use xlink:href="#me2cac8929c" x="547.2" y="196.56" style="stroke: #000000; stroke-width: 0.8"/>
      </g>
     </g>
     <g id="text_12">
      <!-- $\mathdefault{8}$ -->
      <g transform="translate(79.252 202.684125) scale(0.168 -0.168)">
       <use xlink:href="#TeXGyreHeros-Regular-38" transform="translate(0 0.09375)"/>
      </g>
     </g>
    </g>
    <g id="ytick_6">
     <g id="line2d_55">
      <g>
       <use xlink:href="#mb3a42015c2" x="92.16" y="154.98" style="stroke: #000000; stroke-width: 0.8"/>
      </g>
     </g>
     <g id="line2d_56">
      <g>
       <use xlink:href="#me2cac8929c" x="547.2" y="154.98" style="stroke: #000000; stroke-width: 0.8"/>
      </g>
     </g>
     <g id="text_13">
      <!-- $\mathdefault{10}$ -->
      <g transform="translate(69.844 161.104125) scale(0.168 -0.168)">
       <use xlink:href="#TeXGyreHeros-Regular-31" transform="translate(0 0.09375)"/>
       <use xlink:href="#TeXGyreHeros-Regular-30" transform="translate(55.599991 0.09375)"/>
      </g>
     </g>
    </g>
    <g id="ytick_7">
     <g id="line2d_57">
      <g>
       <use xlink:href="#mb3a42015c2" x="92.16" y="113.4" style="stroke: #000000; stroke-width: 0.8"/>
      </g>
     </g>
     <g id="line2d_58">
      <g>
       <use xlink:href="#me2cac8929c" x="547.2" y="113.4" style="stroke: #000000; stroke-width: 0.8"/>
      </g>
     </g>
     <g id="text_14">
      <!-- $\mathdefault{12}$ -->
      <g transform="translate(69.844 119.524125) scale(0.168 -0.168)">
       <use xlink:href="#TeXGyreHeros-Regular-31" transform="translate(0 0.09375)"/>
       <use xlink:href="#TeXGyreHeros-Regular-32" transform="translate(55.599991 0.09375)"/>
      </g>
     </g>
    </g>
    <g id="ytick_8">
     <g id="line2d_59">
      <g>
       <use xlink:href="#mb3a42015c2" x="92.16" y="71.82" style="stroke: #000000; stroke-width: 0.8"/>
      </g>
     </g>
     <g id="line2d_60">
      <g>
       <use xlink:href="#me2cac8929c" x="547.2" y="71.82" style="stroke: #000000; stroke-width: 0.8"/>
      </g>
     </g>
     <g id="text_15">
      <!-- $\mathdefault{14}$ -->
      <g transform="translate(69.844 77.944125) scale(0.168 -0.168)">
       <use xlink:href="#TeXGyreHeros-Regular-31" transform="translate(0 0.09375)"/>
       <use xlink:href="#TeXGyreHeros-Regular-34" transform="translate(55.599991 0.09375)"/>
      </g>
     </g>
    </g>
    <g id="ytick_9">
     <g id="line2d_61">
      <g>
       <use xlink:href="#mb3a42015c2" x="92.16" y="30.24" style="stroke: #000000; stroke-width: 0.8"/>
      </g>
     </g>
     <g id="line2d_62">
      <g>
       <use xlink:href="#me2cac8929c" x="547.2" y="30.24" style="stroke: #000000; stroke-width: 0.8"/>
      </g>
     </g>
     <g id="text_16">
      <!-- $\mathdefault{16}$ -->
      <g transform="translate(69.844 36.364125) scale(0.168 -0.168)">
       <use xlink:href="#TeXGyreHeros-Regular-31" transform="translate(0 0.09375)"/>
       <use xlink:href="#TeXGyreHeros-Regular-36" transform="translate(55.599991 0.09375)"/>
      </g>
     </g>
    </g>
    <g id="ytick_10">
     <g id="line2d_63">
      <defs>
       <path id="mda78d41513" d="M 0 0 
L 7 0 
" style="stroke: #000000; stroke-width: 0.6"/>
      </defs>
      <g>
       <use xlink:href="#mda78d41513" x="92.16" y="352.485" style="stroke: #000000; stroke-width: 0.6"/>
      </g>
     </g>
     <g id="line2d_64">
      <defs>
       <path id="mfcf70a8dac" d="M 0 0 
L -7 0 
" style="stroke: #000000; stroke-width: 0.6"/>
      </defs>
      <g>
       <use xlink:href="#mfcf70a8dac" x="547.2" y="352.485" style="stroke: #000000; stroke-width: 0.6"/>
      </g>
     </g>
    </g>
    <g id="ytick_11">
     <g id="line2d_65">
      <g>
       <use xlink:href="#mda78d41513" x="92.16" y="342.09" style="stroke: #000000; stroke-width: 0.6"/>
      </g>
     </g>
     <g id="line2d_66">
      <g>
       <use xlink:href="#mfcf70a8dac" x="547.2" y="342.09" style="stroke: #000000; stroke-width: 0.6"/>
      </g>
     </g>
    </g>
    <g id="ytick_12">
     <g id="line2d_67">
      <g>
       <use xlink:href="#mda78d41513" x="92.16" y="331.695" style="stroke: #000000; stroke-width: 0.6"/>
      </g>
     </g>
     <g id="line2d_68">
      <g>
       <use xlink:href="#mfcf70a8dac" x="547.2" y="331.695" style="stroke: #000000; stroke-width: 0.6"/>
      </g>
     </g>
    </g>
    <g id="ytick_13">
     <g id="line2d_69">
      <g>
       <use xlink:href="#mda78d41513" x="92.16" y="310.905" style="stroke: #000000; stroke-width: 0.6"/>
      </g>
     </g>
     <g id="line2d_70">
      <g>
       <use xlink:href="#mfcf70a8dac" x="547.2" y="310.905" style="stroke: #000000; stroke-width: 0.6"/>
      </g>
     </g>
    </g>
    <g id="ytick_14">
     <g id="line2d_71">
      <g>
       <use xlink:href="#mda78d41513" x="92.16" y="300.51" style="stroke: #000000; stroke-width: 0.6"/>
      </g>
     </g>
     <g id="line2d_72">
      <g>
       <use xlink:href="#mfcf70a8dac" x="547.2" y="300.51" style="stroke: #000000; stroke-width: 0.6"/>
      </g>
     </g>
    </g>
    <g id="ytick_15">
     <g id="line2d_73">
      <g>
       <use xlink:href="#mda78d41513" x="92.16" y="290.115" style="stroke: #000000; stroke-width: 0.6"/>
      </g>
     </g>
     <g id="line2d_74">
      <g>
       <use xlink:href="#mfcf70a8dac" x="547.2" y="290.115" style="stroke: #000000; stroke-width: 0.6"/>
      </g>
     </g>
    </g>
    <g id="ytick_16">
     <g id="line2d_75">
      <g>
       <use xlink:href="#mda78d41513" x="92.16" y="269.325" style="stroke: #000000; stroke-width: 0.6"/>
      </g>
     </g>
     <g id="line2d_76">
      <g>
       <use xlink:href="#mfcf70a8dac" x="547.2" y="269.325" style="stroke: #000000; stroke-width: 0.6"/>
      </g>
     </g>
    </g>
    <g id="ytick_17">
     <g id="line2d_77">
      <g>
       <use xlink:href="#mda78d41513" x="92.16" y="258.93" style="stroke: #000000; stroke-width: 0.6"/>
      </g>
     </g>
     <g id="line2d_78">
      <g>
       <use xlink:href="#mfcf70a8dac" x="547.2" y="258.93" style="stroke: #000000; stroke-width: 0.6"/>
      </g>
     </g>
    </g>
    <g id="ytick_18">
     <g id="line2d_79">
      <g>
       <use xlink:href="#mda78d41513" x="92.16" y="248.535" style="stroke: #000000; stroke-width: 0.6"/>
      </g>
     </g>
     <g id="line2d_80">
      <g>
       <use xlink:href="#mfcf70a8dac" x="547.2" y="248.535" style="stroke: #000000; stroke-width: 0.6"/>
      </g>
     </g>
    </g>
    <g id="ytick_19">
     <g id="line2d_81">
      <g>
       <use xlink:href="#mda78d41513" x="92.16" y="227.745" style="stroke: #000000; stroke-width: 0.6"/>
      </g>
     </g>
     <g id="line2d_82">
      <g>
       <use xlink:href="#mfcf70a8dac" x="547.2" y="227.745" style="stroke: #000000; stroke-width: 0.6"/>
      </g>
     </g>
    </g>
    <g id="ytick_20">
     <g id="line2d_83">
      <g>
       <use xlink:href="#mda78d41513" x="92.16" y="217.35" style="stroke: #000000; stroke-width: 0.6"/>
      </g>
     </g>
     <g id="line2d_84">
      <g>
       <use xlink:href="#mfcf70a8dac" x="547.2" y="217.35" style="stroke: #000000; stroke-width: 0.6"/>
      </g>
     </g>
    </g>
    <g id="ytick_21">
     <g id="line2d_85">
      <g>
       <use xlink:href="#mda78d41513" x="92.16" y="206.955" style="stroke: #000000; stroke-width: 0.6"/>
      </g>
     </g>
     <g id="line2d_86">
      <g>
       <use xlink:href="#mfcf70a8dac" x="547.2" y="206.955" style="stroke: #000000; stroke-width: 0.6"/>
      </g>
     </g>
    </g>
    <g id="ytick_22">
     <g id="line2d_87">
      <g>
       <use xlink:href="#mda78d41513" x="92.16" y="186.165" style="stroke: #000000; stroke-width: 0.6"/>
      </g>
     </g>
     <g id="line2d_88">
      <g>
       <use xlink:href="#mfcf70a8dac" x="547.2" y="186.165" style="stroke: #000000; stroke-width: 0.6"/>
      </g>
     </g>
    </g>
    <g id="ytick_23">
     <g id="line2d_89">
      <g>
       <use xlink:href="#mda78d41513" x="92.16" y="175.77" style="stroke: #000000; stroke-width: 0.6"/>
      </g>
     </g>
     <g id="line2d_90">
      <g>
       <use xlink:href="#mfcf70a8dac" x="547.2" y="175.77" style="stroke: #000000; stroke-width: 0.6"/>
      </g>
     </g>
    </g>
    <g id="ytick_24">
     <g id="line2d_91">
      <g>
       <use xlink:href="#mda78d41513" x="92.16" y="165.375" style="stroke: #000000; stroke-width: 0.6"/>
      </g>
     </g>
     <g id="line2d_92">
      <g>
       <use xlink:href="#mfcf70a8dac" x="547.2" y="165.375" style="stroke: #000000; stroke-width: 0.6"/>
      </g>
     </g>
    </g>
    <g id="ytick_25">
     <g id="line2d_93">
      <g>
       <use xlink:href="#mda78d41513" x="92.16" y="144.585" style="stroke: #000000; stroke-width: 0.6"/>
      </g>
     </g>
     <g id="line2d_94">
      <g>
       <use xlink:href="#mfcf70a8dac" x="547.2" y="144.585" style="stroke: #000000; stroke-width: 0.6"/>
      </g>
     </g>
    </g>
    <g id="ytick_26">
     <g id="line2d_95">
      <g>
       <use xlink:href="#mda78d41513" x="92.16" y="134.19" style="stroke: #000000; stroke-width: 0.6"/>
      </g>
     </g>
     <g id="line2d_96">
      <g>
       <use xlink:href="#mfcf70a8dac" x="547.2" y="134.19" style="stroke: #000000; stroke-width: 0.6"/>
      </g>
     </g>
    </g>
    <g id="ytick_27">
     <g id="line2d_97">
      <g>
       <use xlink:href="#mda78d41513" x="92.16" y="123.795" style="stroke: #000000; stroke-width: 0.6"/>
      </g>
     </g>
     <g id="line2d_98">
      <g>
       <use xlink:href="#mfcf70a8dac" x="547.2" y="123.795" style="stroke: #000000; stroke-width: 0.6"/>
      </g>
     </g>
    </g>
    <g id="ytick_28">
     <g id="line2d_99">
      <g>
       <use xlink:href="#mda78d41513" x="92.16" y="103.005" style="stroke: #000000; stroke-width: 0.6"/>
      </g>
     </g>
     <g id="line2d_100">
      <g>
       <use xlink:href="#mfcf70a8dac" x="547.2" y="103.005" style="stroke: #000000; stroke-width: 0.6"/>
      </g>
     </g>
    </g>
    <g id="ytick_29">
     <g id="line2d_101">
      <g>
       <use xlink:href="#mda78d41513" x="92.16" y="92.61" style="stroke: #000000; stroke-width: 0.6"/>
      </g>
     </g>
     <g id="line2d_102">
      <g>
       <use xlink:href="#mfcf70a8dac" x="547.2" y="92.61" style="stroke: #000000; stroke-width: 0.6"/>
      </g>
     </g>
    </g>
    <g id="ytick_30">
     <g id="line2d_103">
      <g>
       <use xlink:href="#mda78d41513" x="92.16" y="82.215" style="stroke: #000000; stroke-width: 0.6"/>
      </g>
     </g>
     <g id="line2d_104">
      <g>
       <use xlink:href="#mfcf70a8dac" x="547.2" y="82.215" style="stroke: #000000; stroke-width: 0.6"/>
      </g>
     </g>
    </g>
    <g id="ytick_31">
     <g id="line2d_105">
      <g>
       <use xlink:href="#mda78d41513" x="92.16" y="61.425" style="stroke: #000000; stroke-width: 0.6"/>
      </g>
     </g>
     <g id="line2d_106">
      <g>
       <use xlink:href="#mfcf70a8dac" x="547.2" y="61.425" style="stroke: #000000; stroke-width: 0.6"/>
      </g>
     </g>
    </g>
    <g id="ytick_32">
     <g id="line2d_107">
      <g>
       <use xlink:href="#mda78d41513" x="92.16" y="51.03" style="stroke: #000000; stroke-width: 0.6"/>
      </g>
     </g>
     <g id="line2d_108">
      <g>
       <use xlink:href="#mfcf70a8dac" x="547.2" y="51.03" style="stroke: #000000; stroke-width: 0.6"/>
      </g>
     </g>
    </g>
    <g id="ytick_33">
     <g id="line2d_109">
      <g>
       <use xlink:href="#mda78d41513" x="92.16" y="40.635" style="stroke: #000000; stroke-width: 0.6"/>
      </g>
     </g>
     <g id="line2d_110">
      <g>
       <use xlink:href="#mfcf70a8dac" x="547.2" y="40.635" style="stroke: #000000; stroke-width: 0.6"/>
      </g>
     </g>
    </g>
   </g>
   <g id="text_17">
    <!-- CMS -->
    <g transform="translate(92.16 26.272969) scale(0.182 -0.182)">
     <defs>
      <path id="TeXGyreHeros-Bold-43" d="M 4384 1594 
L 3450 1594 
C 3392 998 3014 730 2419 730 
C 1677 730 1242 1299 1242 2317 
C 1242 3347 1696 3923 2451 3923 
C 2970 3923 3309 3686 3450 3085 
L 4365 3085 
C 4282 4160 3469 4742 2419 4742 
C 1101 4742 282 3840 282 2330 
C 282 832 1094 -77 2394 -77 
C 3552 -77 4326 525 4384 1594 
z
" transform="scale(0.015625)"/>
      <path id="TeXGyreHeros-Bold-4d" d="M 4966 0 
L 4966 4666 
L 3520 4666 
L 2701 954 
L 1856 4666 
L 422 4666 
L 422 0 
L 1382 0 
L 1382 3635 
L 2221 0 
L 3181 0 
L 4006 3635 
L 4006 0 
L 4966 0 
z
" transform="scale(0.015625)"/>
      <path id="TeXGyreHeros-Bold-53" d="M 4051 1402 
C 4051 2138 3680 2483 2816 2650 
L 2086 2790 
C 1402 2925 1203 3059 1203 3398 
C 1203 3750 1517 3974 2010 3974 
C 2618 3974 2989 3718 2989 3245 
L 3885 3245 
C 3885 4230 3194 4742 2054 4742 
C 934 4742 288 4218 288 3309 
C 288 2579 653 2240 1600 2054 
L 2253 1926 
C 2893 1798 3130 1664 3130 1286 
C 3130 896 2771 691 2189 691 
C 1536 691 1139 966 1139 1466 
L 205 1466 
C 205 467 947 -77 2138 -77 
C 3341 -77 4051 454 4051 1402 
z
" transform="scale(0.015625)"/>
     </defs>
     <use xlink:href="#TeXGyreHeros-Bold-43"/>
     <use xlink:href="#TeXGyreHeros-Bold-4d" x="72.199982"/>
     <use xlink:href="#TeXGyreHeros-Bold-53" x="155.499969"/>
    </g>
   </g>
   <g id="text_18">
    <!-- Work in Progress -->
    <g transform="translate(134.496 25.525238) scale(0.14 -0.14)">
     <defs>
      <path id="TeXGyreHeros-Italic-57" d="M 6618 4666 
L 5952 4666 
L 4269 877 
L 4006 4666 
L 3392 4666 
L 1549 877 
L 1549 4666 
L 813 4666 
L 813 0 
L 1670 0 
L 3526 3789 
L 3789 0 
L 4442 0 
L 6618 4666 
z
" transform="scale(0.015625)"/>
      <path id="TeXGyreHeros-Italic-72" d="M 2355 2886 
L 2470 3430 
C 2387 3443 2336 3450 2266 3450 
C 1894 3450 1606 3283 1210 2829 
L 1318 3354 
L 832 3354 
L 122 0 
L 659 0 
L 1030 1741 
C 1190 2496 1626 2886 2291 2886 
L 2355 2886 
z
" transform="scale(0.015625)"/>
      <path id="TeXGyreHeros-Italic-6b" d="M 2893 0 
L 1997 2195 
L 3418 3354 
L 2726 3354 
L 1005 1958 
L 1581 4666 
L 1043 4666 
L 51 0 
L 589 0 
L 864 1299 
L 1549 1862 
L 2278 0 
L 2893 0 
z
" transform="scale(0.015625)"/>
      <path id="TeXGyreHeros-Italic-20" transform="scale(0.015625)"/>
      <path id="TeXGyreHeros-Italic-69" d="M 659 0 
L 1370 3354 
L 832 3354 
L 122 0 
L 659 0 
z
M 1677 4525 
L 1011 4525 
L 870 3866 
L 1536 3866 
L 1677 4525 
z
" transform="scale(0.015625)"/>
      <path id="TeXGyreHeros-Italic-67" d="M 2931 544 
L 3526 3354 
L 3040 3354 
L 2931 2854 
C 2739 3270 2426 3450 2042 3450 
C 922 3450 154 2304 154 1082 
C 154 384 608 -96 1261 -96 
C 1664 -96 2042 77 2362 410 
L 2336 282 
C 2150 -589 1805 -934 1126 -934 
C 691 -934 435 -762 435 -474 
L 435 -384 
L -102 -384 
L -109 -467 
C -115 -518 -115 -557 -115 -582 
C -115 -1075 333 -1395 1018 -1395 
C 1523 -1395 1978 -1242 2266 -966 
C 2586 -659 2758 -269 2931 544 
z
M 2682 2170 
C 2682 1222 2176 365 1414 365 
C 986 365 717 678 717 1184 
C 717 2080 1248 2957 2003 2957 
C 2413 2957 2682 2650 2682 2170 
z
" transform="scale(0.015625)"/>
      <path id="TeXGyreHeros-Italic-65" d="M 3290 1523 
L 3302 1606 
C 3360 1914 3392 2182 3392 2355 
C 3392 2970 2861 3450 2170 3450 
C 1613 3450 1075 3187 755 2758 
C 454 2355 224 1651 224 1133 
C 224 467 717 -96 1498 -96 
C 2266 -96 2912 326 3110 1018 
L 2573 1018 
C 2355 627 2016 397 1587 397 
C 1082 397 787 685 787 1229 
C 781 1338 787 1402 819 1523 
L 3290 1523 
z
M 2816 1984 
L 934 1984 
C 1094 2547 1568 2957 2086 2957 
C 2541 2957 2829 2650 2829 2170 
C 2829 2106 2822 2061 2816 1984 
z
" transform="scale(0.015625)"/>
      <path id="TeXGyreHeros-Italic-73" d="M 2848 1158 
C 2848 1549 2637 1754 2074 1894 
L 1587 2016 
C 1229 2106 1043 2234 1043 2400 
C 1043 2726 1363 2957 1850 2957 
C 2227 2957 2438 2810 2438 2560 
C 2438 2515 2438 2470 2432 2419 
L 2970 2419 
C 3002 2554 3008 2611 3008 2694 
C 3008 3142 2579 3450 1958 3450 
C 1069 3450 480 2938 480 2259 
C 480 1869 704 1677 1363 1510 
L 1837 1389 
C 2240 1286 2285 1146 2285 1011 
C 2285 646 1862 397 1370 397 
C 928 397 678 570 678 890 
C 678 928 685 986 691 1050 
L 122 1050 
C 90 902 83 826 83 723 
C 83 211 531 -96 1274 -96 
C 2227 -96 2848 397 2848 1158 
z
" transform="scale(0.015625)"/>
     </defs>
     <use xlink:href="#TeXGyreHeros-Italic-57"/>
     <use xlink:href="#TeXGyreHeros-Italic-6f" x="94.399994"/>
     <use xlink:href="#TeXGyreHeros-Italic-72" x="149.999985"/>
     <use xlink:href="#TeXGyreHeros-Italic-6b" x="183.299973"/>
     <use xlink:href="#TeXGyreHeros-Italic-20" x="233.299957"/>
     <use xlink:href="#TeXGyreHeros-Italic-69" x="261.099945"/>
     <use xlink:href="#TeXGyreHeros-Italic-6e" x="283.299942"/>
     <use xlink:href="#TeXGyreHeros-Italic-20" x="338.899933"/>
     <use xlink:href="#TeXGyreHeros-Italic-50" x="366.699921"/>
     <use xlink:href="#TeXGyreHeros-Italic-72" x="433.399918"/>
     <use xlink:href="#TeXGyreHeros-Italic-6f" x="466.699905"/>
     <use xlink:href="#TeXGyreHeros-Italic-67" x="522.299896"/>
     <use xlink:href="#TeXGyreHeros-Italic-72" x="577.899887"/>
     <use xlink:href="#TeXGyreHeros-Italic-65" x="611.199875"/>
     <use xlink:href="#TeXGyreHeros-Italic-73" x="666.799866"/>
     <use xlink:href="#TeXGyreHeros-Italic-73" x="716.79985"/>
    </g>
   </g>
   <g id="text_19">
    <!-- cuts: NJet = True, NMuon = True, MuonTrigger = True, NBJet = True, MuonPt = False -->
    <g transform="translate(101.2608 45.395127) scale(0.11662 -0.11662)">
     <defs>
      <path id="TeXGyreHeros-Regular-63" d="M 3053 1152 
L 2515 1152 
C 2426 614 2150 397 1696 397 
C 1107 397 755 851 755 1645 
C 755 2483 1101 2957 1683 2957 
C 2131 2957 2413 2694 2477 2227 
L 3014 2227 
C 2950 3046 2438 3450 1690 3450 
C 787 3450 198 2758 198 1645 
C 198 563 774 -96 1683 -96 
C 2483 -96 2989 384 3053 1152 
z
" transform="scale(0.015625)"/>
      <path id="TeXGyreHeros-Regular-75" d="M 3085 0 
L 3085 3354 
L 2554 3354 
L 2554 1504 
C 2554 819 2195 371 1638 371 
C 1216 371 947 627 947 1030 
L 947 3354 
L 416 3354 
L 416 819 
C 416 262 832 -96 1485 -96 
C 1978 -96 2291 77 2605 518 
L 2605 0 
L 3085 0 
z
" transform="scale(0.015625)"/>
      <path id="TeXGyreHeros-Regular-74" d="M 1626 0 
L 1626 448 
C 1555 429 1472 422 1370 422 
C 1139 422 1075 486 1075 723 
L 1075 2918 
L 1626 2918 
L 1626 3354 
L 1075 3354 
L 1075 4275 
L 544 4275 
L 544 3354 
L 90 3354 
L 90 2918 
L 544 2918 
L 544 486 
C 544 147 774 -45 1190 -45 
C 1318 -45 1446 -32 1626 0 
z
" transform="scale(0.015625)"/>
      <path id="TeXGyreHeros-Regular-73" d="M 2938 941 
C 2938 1440 2656 1690 1990 1850 
L 1478 1971 
C 1043 2074 858 2214 858 2451 
C 858 2758 1133 2957 1568 2957 
C 1997 2957 2227 2771 2240 2419 
L 2803 2419 
C 2797 3078 2362 3450 1587 3450 
C 806 3450 301 3046 301 2426 
C 301 1901 570 1651 1363 1459 
L 1862 1338 
C 2234 1248 2381 1139 2381 896 
C 2381 582 2067 397 1600 397 
C 1120 397 851 512 781 1024 
L 218 1024 
C 243 250 678 -96 1555 -96 
C 2400 -96 2938 294 2938 941 
z
" transform="scale(0.015625)"/>
      <path id="TeXGyreHeros-Regular-3a" d="M 1222 0 
L 1222 666 
L 557 666 
L 557 0 
L 1222 0 
z
M 1222 2688 
L 1222 3354 
L 557 3354 
L 557 2688 
L 1222 2688 
z
" transform="scale(0.015625)"/>
      <path id="TeXGyreHeros-Regular-4e" d="M 4134 0 
L 4134 4666 
L 3571 4666 
L 3571 851 
L 1133 4666 
L 486 4666 
L 486 0 
L 1050 0 
L 1050 3782 
L 3462 0 
L 4134 0 
z
" transform="scale(0.015625)"/>
      <path id="TeXGyreHeros-Regular-4a" d="M 2726 1197 
L 2726 4666 
L 2131 4666 
L 2131 1414 
C 2131 646 1869 384 1414 384 
C 966 384 717 685 717 1229 
L 717 1498 
L 122 1498 
L 122 1120 
C 122 365 595 -115 1408 -115 
C 2221 -115 2726 390 2726 1197 
z
" transform="scale(0.015625)"/>
      <path id="TeXGyreHeros-Regular-3d" d="M 3302 1965 
L 3302 2400 
L 435 2400 
L 435 1965 
L 3302 1965 
z
M 3302 800 
L 3302 1235 
L 435 1235 
L 435 800 
L 3302 800 
z
" transform="scale(0.015625)"/>
      <path id="TeXGyreHeros-Regular-54" d="M 3795 4141 
L 3795 4666 
L 134 4666 
L 134 4141 
L 1670 4141 
L 1670 0 
L 2266 0 
L 2266 4141 
L 3795 4141 
z
" transform="scale(0.015625)"/>
      <path id="TeXGyreHeros-Regular-72" d="M 2054 2886 
L 2054 3430 
C 1965 3443 1920 3450 1850 3450 
C 1504 3450 1242 3245 934 2746 
L 934 3354 
L 448 3354 
L 448 0 
L 979 0 
L 979 1741 
C 979 2496 1229 2874 2054 2886 
z
" transform="scale(0.015625)"/>
      <path id="TeXGyreHeros-Regular-2c" d="M 1229 -102 
L 1229 666 
L 557 666 
L 557 0 
L 941 0 
L 941 -115 
C 941 -557 858 -685 557 -698 
L 557 -941 
C 1005 -941 1229 -653 1229 -102 
z
" transform="scale(0.015625)"/>
      <path id="TeXGyreHeros-Regular-4d" d="M 4870 0 
L 4870 4666 
L 4045 4666 
L 2688 602 
L 1306 4666 
L 480 4666 
L 480 0 
L 1043 0 
L 1043 3910 
L 2368 0 
L 2995 0 
L 4307 3910 
L 4307 0 
L 4870 0 
z
" transform="scale(0.015625)"/>
      <path id="TeXGyreHeros-Regular-6f" d="M 3264 1651 
C 3264 2810 2707 3450 1741 3450 
C 800 3450 230 2803 230 1677 
C 230 550 794 -96 1747 -96 
C 2688 -96 3264 550 3264 1651 
z
M 2707 1658 
C 2707 870 2336 397 1747 397 
C 1152 397 787 864 787 1677 
C 787 2483 1152 2957 1747 2957 
C 2349 2957 2707 2490 2707 1658 
z
" transform="scale(0.015625)"/>
      <path id="TeXGyreHeros-Regular-6e" d="M 3117 0 
L 3117 2534 
C 3117 3091 2701 3450 2054 3450 
C 1555 3450 1235 3258 941 2790 
L 941 3354 
L 448 3354 
L 448 0 
L 979 0 
L 979 1850 
C 979 2534 1350 2982 1894 2982 
C 2317 2982 2586 2726 2586 2323 
L 2586 0 
L 3117 0 
z
" transform="scale(0.015625)"/>
      <path id="TeXGyreHeros-Regular-69" d="M 979 0 
L 979 3354 
L 448 3354 
L 448 0 
L 979 0 
z
M 1050 3859 
L 1050 4525 
L 384 4525 
L 384 3859 
L 1050 3859 
z
" transform="scale(0.015625)"/>
      <path id="TeXGyreHeros-Regular-67" d="M 3130 550 
L 3130 3354 
L 2637 3354 
L 2637 2867 
C 2368 3264 2042 3450 1613 3450 
C 762 3450 186 2733 186 1645 
C 186 589 781 -96 1568 -96 
C 1990 -96 2285 83 2637 506 
L 2637 282 
C 2637 -608 2272 -947 1651 -947 
C 1229 -947 902 -794 838 -384 
L 294 -384 
C 352 -1018 845 -1395 1632 -1395 
C 2682 -1395 3130 -928 3130 550 
z
M 2586 1658 
C 2586 858 2240 397 1677 397 
C 1094 397 742 864 742 1677 
C 742 2483 1101 2957 1670 2957 
C 2246 2957 2586 2470 2586 1658 
z
" transform="scale(0.015625)"/>
      <path id="TeXGyreHeros-Regular-42" d="M 3987 1331 
C 3987 1894 3731 2234 3136 2464 
C 3558 2662 3782 3008 3782 3482 
C 3782 4160 3283 4666 2400 4666 
L 506 4666 
L 506 0 
L 2611 0 
C 3450 0 3987 563 3987 1331 
z
M 3187 3398 
C 3187 2925 2912 2656 2253 2656 
L 1101 2656 
L 1101 4141 
L 2253 4141 
C 2912 4141 3187 3872 3187 3398 
z
M 3392 1325 
C 3392 877 3117 525 2554 525 
L 1101 525 
L 1101 2131 
L 2554 2131 
C 3117 2131 3392 1779 3392 1325 
z
" transform="scale(0.015625)"/>
      <path id="TeXGyreHeros-Regular-50" d="M 3949 3296 
C 3949 4173 3430 4666 2509 4666 
L 582 4666 
L 582 0 
L 1178 0 
L 1178 1978 
L 2643 1978 
C 3411 1978 3949 2522 3949 3296 
z
M 3328 3322 
C 3328 2810 2989 2502 2419 2502 
L 1178 2502 
L 1178 4141 
L 2419 4141 
C 2989 4141 3328 3834 3328 3322 
z
" transform="scale(0.015625)"/>
      <path id="TeXGyreHeros-Regular-46" d="M 3706 4141 
L 3706 4666 
L 576 4666 
L 576 0 
L 1171 0 
L 1171 2125 
L 3398 2125 
L 3398 2650 
L 1171 2650 
L 1171 4141 
L 3706 4141 
z
" transform="scale(0.015625)"/>
      <path id="TeXGyreHeros-Regular-61" d="M 3424 13 
L 3424 416 
C 3366 403 3341 403 3309 403 
C 3123 403 3021 499 3021 666 
L 3021 2534 
C 3021 3130 2586 3450 1760 3450 
C 947 3450 448 3136 416 2362 
L 954 2362 
C 998 2771 1242 2957 1741 2957 
C 2221 2957 2490 2778 2490 2458 
L 2490 2317 
C 2490 2093 2355 1997 1933 1946 
C 1178 1850 1062 1824 858 1741 
C 467 1581 269 1280 269 870 
C 269 262 691 -96 1370 -96 
C 1798 -96 2214 83 2509 397 
C 2566 141 2797 -45 3059 -45 
C 3168 -45 3251 -32 3424 13 
z
M 2490 1158 
C 2490 678 2003 371 1485 371 
C 1069 371 826 518 826 883 
C 826 1235 1062 1389 1632 1472 
C 2195 1549 2310 1574 2490 1658 
L 2490 1158 
z
" transform="scale(0.015625)"/>
      <path id="TeXGyreHeros-Regular-6c" d="M 966 0 
L 966 4666 
L 435 4666 
L 435 0 
L 966 0 
z
" transform="scale(0.015625)"/>
     </defs>
     <use xlink:href="#TeXGyreHeros-Regular-63"/>
     <use xlink:href="#TeXGyreHeros-Regular-75" x="49.999985"/>
     <use xlink:href="#TeXGyreHeros-Regular-74" x="105.599976"/>
     <use xlink:href="#TeXGyreHeros-Regular-73" x="133.399963"/>
     <use xlink:href="#TeXGyreHeros-Regular-3a" x="183.399948"/>
     <use xlink:href="#TeXGyreHeros-Regular-20" x="211.199936"/>
     <use xlink:href="#TeXGyreHeros-Regular-4e" x="238.999924"/>
     <use xlink:href="#TeXGyreHeros-Regular-4a" x="311.199905"/>
     <use xlink:href="#TeXGyreHeros-Regular-65" x="361.19989"/>
     <use xlink:href="#TeXGyreHeros-Regular-74" x="416.799881"/>
     <use xlink:href="#TeXGyreHeros-Regular-20" x="444.599869"/>
     <use xlink:href="#TeXGyreHeros-Regular-3d" x="472.399857"/>
     <use xlink:href="#TeXGyreHeros-Regular-20" x="530.79985"/>
     <use xlink:href="#TeXGyreHeros-Regular-54" x="558.599838"/>
     <use xlink:href="#TeXGyreHeros-Regular-72" x="619.699829"/>
     <use xlink:href="#TeXGyreHeros-Regular-75" x="652.999817"/>
     <use xlink:href="#TeXGyreHeros-Regular-65" x="708.599808"/>
     <use xlink:href="#TeXGyreHeros-Regular-2c" x="764.199799"/>
     <use xlink:href="#TeXGyreHeros-Regular-20" x="791.999786"/>
     <use xlink:href="#TeXGyreHeros-Regular-4e" x="819.799774"/>
     <use xlink:href="#TeXGyreHeros-Regular-4d" x="891.999756"/>
     <use xlink:href="#TeXGyreHeros-Regular-75" x="975.299744"/>
     <use xlink:href="#TeXGyreHeros-Regular-6f" x="1030.899734"/>
     <use xlink:href="#TeXGyreHeros-Regular-6e" x="1086.499725"/>
     <use xlink:href="#TeXGyreHeros-Regular-20" x="1142.099716"/>
     <use xlink:href="#TeXGyreHeros-Regular-3d" x="1169.899704"/>
     <use xlink:href="#TeXGyreHeros-Regular-20" x="1228.299698"/>
     <use xlink:href="#TeXGyreHeros-Regular-54" x="1256.099686"/>
     <use xlink:href="#TeXGyreHeros-Regular-72" x="1317.199677"/>
     <use xlink:href="#TeXGyreHeros-Regular-75" x="1350.499664"/>
     <use xlink:href="#TeXGyreHeros-Regular-65" x="1406.099655"/>
     <use xlink:href="#TeXGyreHeros-Regular-2c" x="1461.699646"/>
     <use xlink:href="#TeXGyreHeros-Regular-20" x="1489.499634"/>
     <use xlink:href="#TeXGyreHeros-Regular-4d" x="1517.299622"/>
     <use xlink:href="#TeXGyreHeros-Regular-75" x="1600.599609"/>
     <use xlink:href="#TeXGyreHeros-Regular-6f" x="1656.1996"/>
     <use xlink:href="#TeXGyreHeros-Regular-6e" x="1711.799591"/>
     <use xlink:href="#TeXGyreHeros-Regular-54" x="1767.399582"/>
     <use xlink:href="#TeXGyreHeros-Regular-72" x="1828.499573"/>
     <use xlink:href="#TeXGyreHeros-Regular-69" x="1861.799561"/>
     <use xlink:href="#TeXGyreHeros-Regular-67" x="1883.999557"/>
     <use xlink:href="#TeXGyreHeros-Regular-67" x="1939.599548"/>
     <use xlink:href="#TeXGyreHeros-Regular-65" x="1995.199539"/>
     <use xlink:href="#TeXGyreHeros-Regular-72" x="2050.79953"/>
     <use xlink:href="#TeXGyreHeros-Regular-20" x="2084.099518"/>
     <use xlink:href="#TeXGyreHeros-Regular-3d" x="2111.899506"/>
     <use xlink:href="#TeXGyreHeros-Regular-20" x="2170.2995"/>
     <use xlink:href="#TeXGyreHeros-Regular-54" x="2198.099487"/>
     <use xlink:href="#TeXGyreHeros-Regular-72" x="2259.199478"/>
     <use xlink:href="#TeXGyreHeros-Regular-75" x="2292.499466"/>
     <use xlink:href="#TeXGyreHeros-Regular-65" x="2348.099457"/>
     <use xlink:href="#TeXGyreHeros-Regular-2c" x="2403.699448"/>
     <use xlink:href="#TeXGyreHeros-Regular-20" x="2431.499435"/>
     <use xlink:href="#TeXGyreHeros-Regular-4e" x="2459.299423"/>
     <use xlink:href="#TeXGyreHeros-Regular-42" x="2531.499405"/>
     <use xlink:href="#TeXGyreHeros-Regular-4a" x="2598.199402"/>
     <use xlink:href="#TeXGyreHeros-Regular-65" x="2648.199387"/>
     <use xlink:href="#TeXGyreHeros-Regular-74" x="2703.799377"/>
     <use xlink:href="#TeXGyreHeros-Regular-20" x="2731.599365"/>
     <use xlink:href="#TeXGyreHeros-Regular-3d" x="2759.399353"/>
     <use xlink:href="#TeXGyreHeros-Regular-20" x="2817.799347"/>
     <use xlink:href="#TeXGyreHeros-Regular-54" x="2845.599335"/>
     <use xlink:href="#TeXGyreHeros-Regular-72" x="2906.699326"/>
     <use xlink:href="#TeXGyreHeros-Regular-75" x="2939.999313"/>
     <use xlink:href="#TeXGyreHeros-Regular-65" x="2995.599304"/>
     <use xlink:href="#TeXGyreHeros-Regular-2c" x="3051.199295"/>
     <use xlink:href="#TeXGyreHeros-Regular-20" x="3078.999283"/>
     <use xlink:href="#TeXGyreHeros-Regular-4d" x="3106.799271"/>
     <use xlink:href="#TeXGyreHeros-Regular-75" x="3190.099258"/>
     <use xlink:href="#TeXGyreHeros-Regular-6f" x="3245.699249"/>
     <use xlink:href="#TeXGyreHeros-Regular-6e" x="3301.29924"/>
     <use xlink:href="#TeXGyreHeros-Regular-50" x="3356.899231"/>
     <use xlink:href="#TeXGyreHeros-Regular-74" x="3423.599228"/>
     <use xlink:href="#TeXGyreHeros-Regular-20" x="3451.399216"/>
     <use xlink:href="#TeXGyreHeros-Regular-3d" x="3479.199203"/>
     <use xlink:href="#TeXGyreHeros-Regular-20" x="3537.599197"/>
     <use xlink:href="#TeXGyreHeros-Regular-46" x="3565.399185"/>
     <use xlink:href="#TeXGyreHeros-Regular-61" x="3626.499176"/>
     <use xlink:href="#TeXGyreHeros-Regular-6c" x="3682.099167"/>
     <use xlink:href="#TeXGyreHeros-Regular-73" x="3704.299164"/>
     <use xlink:href="#TeXGyreHeros-Regular-65" x="3754.299149"/>
    </g>
   </g>
   <g id="legend_1">
    <g id="LineCollection_3">
     <path d="M 414.650625 56.546875 
L 428.650625 56.546875 
" style="fill: none; stroke: #000000; stroke-width: 2"/>
    </g>
    <g id="LineCollection_4">
     <path d="M 421.650625 63.546875 
L 421.650625 49.546875 
" style="fill: none; stroke: #000000; stroke-width: 2"/>
    </g>
    <g id="line2d_111"/>
    <g id="line2d_112"/>
    <g id="text_20">
     <!-- Data -->
     <g transform="translate(446.850625 61.446875) scale(0.14 -0.14)">
      <defs>
       <path id="TeXGyreHeros-Regular-44" d="M 4269 2336 
C 4269 3782 3552 4666 2368 4666 
L 570 4666 
L 570 0 
L 2368 0 
C 3546 0 4269 883 4269 2336 
z
M 3674 2330 
C 3674 1152 3187 525 2266 525 
L 1165 525 
L 1165 4141 
L 2266 4141 
C 3187 4141 3674 3520 3674 2330 
z
" transform="scale(0.015625)"/>
      </defs>
      <use xlink:href="#TeXGyreHeros-Regular-44"/>
      <use xlink:href="#TeXGyreHeros-Regular-61" x="72.199982"/>
      <use xlink:href="#TeXGyreHeros-Regular-74" x="127.799973"/>
      <use xlink:href="#TeXGyreHeros-Regular-61" x="155.59996"/>
     </g>
    </g>
    <g id="patch_16">
     <path d="M 407.650625 78.905312 
L 435.650625 78.905312 
L 435.650625 69.105312 
L 407.650625 69.105312 
z
" style="fill: url(#h4357f3d935); opacity: 0.5; stroke: #000000; stroke-linejoin: miter"/>
    </g>
    <g id="text_21">
     <!-- MC Stat Unc -->
     <g transform="translate(446.850625 78.905312) scale(0.14 -0.14)">
      <defs>
       <path id="TeXGyreHeros-Regular-43" d="M 4333 1702 
L 3718 1702 
C 3578 819 3206 410 2419 410 
C 1491 410 902 1120 902 2285 
C 902 3482 1466 4256 2368 4256 
C 3098 4256 3482 3930 3629 3219 
L 4237 3219 
C 4051 4243 3462 4781 2438 4781 
C 1024 4781 307 3642 307 2278 
C 307 915 1043 -115 2413 -115 
C 3552 -115 4192 486 4333 1702 
z
" transform="scale(0.015625)"/>
       <path id="TeXGyreHeros-Regular-53" d="M 3974 1280 
C 3974 1856 3616 2278 2982 2451 
L 1811 2765 
C 1248 2912 1043 3098 1043 3456 
C 1043 3930 1459 4282 2086 4282 
C 2829 4282 3251 3942 3251 3334 
L 3814 3334 
C 3814 4250 3181 4781 2106 4781 
C 1082 4781 448 4218 448 3373 
C 448 2803 749 2445 1363 2285 
L 2522 1978 
C 3110 1824 3379 1587 3379 1222 
C 3379 710 2995 410 2189 410 
C 1306 410 870 851 870 1517 
L 307 1517 
C 307 416 1050 -115 2150 -115 
C 3334 -115 3974 448 3974 1280 
z
" transform="scale(0.015625)"/>
       <path id="TeXGyreHeros-Regular-55" d="M 4128 1421 
L 4128 4666 
L 3533 4666 
L 3533 1421 
C 3533 794 3078 410 2330 410 
C 1632 410 1139 742 1139 1421 
L 1139 4666 
L 544 4666 
L 544 1421 
C 544 474 1222 -115 2330 -115 
C 3424 -115 4128 486 4128 1421 
z
" transform="scale(0.015625)"/>
      </defs>
      <use xlink:href="#TeXGyreHeros-Regular-4d"/>
      <use xlink:href="#TeXGyreHeros-Regular-43" x="83.299988"/>
      <use xlink:href="#TeXGyreHeros-Regular-20" x="155.499969"/>
      <use xlink:href="#TeXGyreHeros-Regular-53" x="183.299957"/>
      <use xlink:href="#TeXGyreHeros-Regular-74" x="249.999954"/>
      <use xlink:href="#TeXGyreHeros-Regular-61" x="277.799942"/>
      <use xlink:href="#TeXGyreHeros-Regular-74" x="333.399933"/>
      <use xlink:href="#TeXGyreHeros-Regular-20" x="361.199921"/>
      <use xlink:href="#TeXGyreHeros-Regular-55" x="388.999908"/>
      <use xlink:href="#TeXGyreHeros-Regular-6e" x="461.19989"/>
      <use xlink:href="#TeXGyreHeros-Regular-63" x="516.799881"/>
     </g>
    </g>
    <g id="patch_17">
     <path d="M 407.650625 96.36375 
L 435.650625 96.36375 
L 435.650625 86.56375 
L 407.650625 86.56375 
z
" style="fill: #ffd700"/>
    </g>
    <g id="text_22">
     <!-- DY -->
     <g transform="translate(446.850625 96.36375) scale(0.14 -0.14)">
      <defs>
       <path id="TeXGyreHeros-Regular-59" d="M 4230 4666 
L 3520 4666 
L 2189 2394 
L 819 4666 
L 83 4666 
L 1882 1830 
L 1882 0 
L 2477 0 
L 2477 1830 
L 4230 4666 
z
" transform="scale(0.015625)"/>
      </defs>
      <use xlink:href="#TeXGyreHeros-Regular-44"/>
      <use xlink:href="#TeXGyreHeros-Regular-59" x="72.199982"/>
     </g>
    </g>
    <g id="patch_18">
     <path d="M 407.650625 113.822187 
L 435.650625 113.822187 
L 435.650625 104.022187 
L 407.650625 104.022187 
z
" style="fill: #9acd32"/>
    </g>
    <g id="text_23">
     <!-- ZZ -->
     <g transform="translate(446.850625 113.822187) scale(0.14 -0.14)">
      <defs>
       <path id="TeXGyreHeros-Regular-5a" d="M 3731 0 
L 3731 525 
L 928 525 
L 3718 4128 
L 3718 4666 
L 358 4666 
L 358 4141 
L 2982 4141 
L 179 525 
L 179 0 
L 3731 0 
z
" transform="scale(0.015625)"/>
      </defs>
      <use xlink:href="#TeXGyreHeros-Regular-5a"/>
      <use xlink:href="#TeXGyreHeros-Regular-5a" x="61.099991"/>
     </g>
    </g>
    <g id="patch_19">
     <path d="M 407.650625 131.280625 
L 435.650625 131.280625 
L 435.650625 121.480625 
L 407.650625 121.480625 
z
" style="fill: #00ffff"/>
    </g>
    <g id="text_24">
     <!-- WZ -->
     <g transform="translate(446.850625 131.280625) scale(0.14 -0.14)">
      <defs>
       <path id="TeXGyreHeros-Regular-57" d="M 5946 4666 
L 5280 4666 
L 4422 877 
L 3360 4666 
L 2720 4666 
L 1683 877 
L 806 4666 
L 141 4666 
L 1338 0 
L 1990 0 
L 3034 3834 
L 4109 0 
L 4762 0 
L 5946 4666 
z
" transform="scale(0.015625)"/>
      </defs>
      <use xlink:href="#TeXGyreHeros-Regular-57"/>
      <use xlink:href="#TeXGyreHeros-Regular-5a" x="94.399994"/>
     </g>
    </g>
    <g id="patch_20">
     <path d="M 407.650625 148.739062 
L 435.650625 148.739062 
L 435.650625 138.939062 
L 407.650625 138.939062 
z
" style="fill: #ff0000"/>
    </g>
    <g id="text_25">
     <!-- TTbar -->
     <g transform="translate(446.850625 148.739062) scale(0.14 -0.14)">
      <defs>
       <path id="TeXGyreHeros-Regular-62" d="M 3347 1715 
C 3347 2803 2797 3450 1914 3450 
C 1453 3450 1126 3277 877 2899 
L 877 4666 
L 346 4666 
L 346 0 
L 826 0 
L 826 480 
C 1082 90 1421 -96 1888 -96 
C 2771 -96 3347 627 3347 1715 
z
M 2790 1683 
C 2790 922 2394 403 1811 403 
C 1248 403 877 915 877 1677 
C 877 2464 1248 2976 1811 2950 
C 2406 2950 2790 2432 2790 1683 
z
" transform="scale(0.015625)"/>
      </defs>
      <use xlink:href="#TeXGyreHeros-Regular-54"/>
      <use xlink:href="#TeXGyreHeros-Regular-54" x="61.099991"/>
      <use xlink:href="#TeXGyreHeros-Regular-62" x="122.199982"/>
      <use xlink:href="#TeXGyreHeros-Regular-61" x="177.799973"/>
      <use xlink:href="#TeXGyreHeros-Regular-72" x="233.399963"/>
     </g>
    </g>
    <g id="patch_21">
     <path d="M 407.650625 166.1975 
L 435.650625 166.1975 
L 435.650625 156.3975 
L 407.650625 156.3975 
z
" style="fill: #663399"/>
    </g>
    <g id="text_26">
     <!-- WW -->
     <g transform="translate(446.850625 166.1975) scale(0.14 -0.14)">
      <use xlink:href="#TeXGyreHeros-Regular-57"/>
      <use xlink:href="#TeXGyreHeros-Regular-57" x="94.399994"/>
     </g>
    </g>
    <g id="patch_22">
     <path d="M 407.650625 183.9075 
L 435.650625 183.9075 
L 435.650625 174.1075 
L 407.650625 174.1075 
z
" style="fill: #4169e1"/>
    </g>
    <g id="text_27">
     <!-- Single Top -->
     <g transform="translate(446.850625 183.9075) scale(0.14 -0.14)">
      <defs>
       <path id="TeXGyreHeros-Regular-70" d="M 3347 1645 
C 3347 2771 2797 3450 1907 3450 
C 1453 3450 1088 3245 838 2848 
L 838 3354 
L 352 3354 
L 352 -1395 
L 883 -1395 
L 883 403 
C 1165 58 1478 -96 1914 -96 
C 2778 -96 3347 576 3347 1645 
z
M 2790 1658 
C 2790 896 2400 403 1818 403 
C 1254 403 883 864 883 1651 
C 883 2438 1254 2950 1818 2950 
C 2406 2950 2790 2458 2790 1658 
z
" transform="scale(0.015625)"/>
      </defs>
      <use xlink:href="#TeXGyreHeros-Regular-53"/>
      <use xlink:href="#TeXGyreHeros-Regular-69" x="66.699997"/>
      <use xlink:href="#TeXGyreHeros-Regular-6e" x="88.899994"/>
      <use xlink:href="#TeXGyreHeros-Regular-67" x="144.499985"/>
      <use xlink:href="#TeXGyreHeros-Regular-6c" x="200.099976"/>
      <use xlink:href="#TeXGyreHeros-Regular-65" x="222.299973"/>
      <use xlink:href="#TeXGyreHeros-Regular-20" x="277.899963"/>
      <use xlink:href="#TeXGyreHeros-Regular-54" x="305.699951"/>
      <use xlink:href="#TeXGyreHeros-Regular-6f" x="366.799942"/>
      <use xlink:href="#TeXGyreHeros-Regular-70" x="422.399933"/>
     </g>
    </g>
    <g id="patch_23">
     <path d="M 407.650625 201.365937 
L 435.650625 201.365937 
L 435.650625 191.565937 
L 407.650625 191.565937 
z
" style="fill: #00ff00"/>
    </g>
    <g id="text_28">
     <!-- WJets -->
     <g transform="translate(446.850625 201.365937) scale(0.14 -0.14)">
      <use xlink:href="#TeXGyreHeros-Regular-57"/>
      <use xlink:href="#TeXGyreHeros-Regular-4a" x="94.399994"/>
      <use xlink:href="#TeXGyreHeros-Regular-65" x="144.399979"/>
      <use xlink:href="#TeXGyreHeros-Regular-74" x="199.999969"/>
      <use xlink:href="#TeXGyreHeros-Regular-73" x="227.799957"/>
     </g>
    </g>
    <g id="patch_24">
     <path d="M 407.650625 218.824375 
L 435.650625 218.824375 
L 435.650625 209.024375 
L 407.650625 209.024375 
z
" style="fill: #ee82ee"/>
    </g>
    <g id="text_29">
     <!-- QCD -->
     <g transform="translate(446.850625 218.824375) scale(0.14 -0.14)">
      <defs>
       <path id="TeXGyreHeros-Regular-51" d="M 4749 2310 
C 4749 3757 3840 4781 2496 4781 
C 1152 4781 243 3757 243 2298 
C 243 838 1152 -115 2496 -115 
C 2957 -115 3341 -13 3718 211 
L 4390 -346 
L 4691 26 
L 4090 518 
C 4531 1005 4749 1574 4749 2310 
z
M 4154 2304 
C 4154 1702 3994 1267 3648 877 
L 3078 1344 
L 2784 986 
L 3258 589 
C 2982 461 2771 410 2490 410 
C 1498 410 838 1146 838 2298 
C 838 3450 1504 4256 2496 4256 
C 3488 4256 4154 3450 4154 2304 
z
" transform="scale(0.015625)"/>
      </defs>
      <use xlink:href="#TeXGyreHeros-Regular-51"/>
      <use xlink:href="#TeXGyreHeros-Regular-43" x="77.799988"/>
      <use xlink:href="#TeXGyreHeros-Regular-44" x="149.999969"/>
     </g>
    </g>
   </g>
  </g>
 </g>
 <defs>
  <clipPath id="p6679d5ab60">
   <rect x="92.16" y="30.24" width="455.04" height="332.64"/>
  </clipPath>
 </defs>
 <defs>
  <pattern id="h4357f3d935" patternUnits="userSpaceOnUse" x="0" y="0" width="72" height="72">
   <rect x="0" y="0" width="73" height="73" fill="none"/>
   <path d="M -36 36 
L 36 -36 
M -32 40 
L 40 -32 
M -28 44 
L 44 -28 
M -24 48 
L 48 -24 
M -20 52 
L 52 -20 
M -16 56 
L 56 -16 
M -12 60 
L 60 -12 
M -8 64 
L 64 -8 
M -4 68 
L 68 -4 
M 0 72 
L 72 0 
M 4 76 
L 76 4 
M 8 80 
L 80 8 
M 12 84 
L 84 12 
M 16 88 
L 88 16 
M 20 92 
L 92 20 
M 24 96 
L 96 24 
M 28 100 
L 100 28 
M 32 104 
L 104 32 
M 36 108 
L 108 36 
" style="fill: #000000; stroke: #000000; stroke-width: 1.0; stroke-linecap: butt; stroke-linejoin: miter; stroke-opacity: 0.5"/>
  </pattern>
 </defs>
</svg>
